<svg width="32" height="32" viewBox="0 0 32 32" fill="none" xmlns="http://www.w3.org/2000/svg">
<rect width="32" height="32" rx="5" transform="matrix(-1 0 0 1 32 0)" fill="#7D9B8F" fill-opacity="0.3"/>
<path d="M23 15C23.5523 15 24 15.4477 24 16C24 16.5523 23.5523 17 23 17V15ZM8.29289 16.7071C7.90237 16.3166 7.90237 15.6834 8.29289 15.2929L14.6569 8.92893C15.0474 8.53841 15.6805 8.53841 16.0711 8.92893C16.4616 9.31946 16.4616 9.95262 16.0711 10.3431L10.4142 16L16.0711 21.6569C16.4616 22.0474 16.4616 22.6805 16.0711 23.0711C15.6805 23.4616 15.0474 23.4616 14.6569 23.0711L8.29289 16.7071ZM23 17H9V15H23V17Z" fill="#7D9B8F"/>
</svg>
