<svg width="164" height="17" viewBox="0 0 164 17" fill="none" xmlns="http://www.w3.org/2000/svg">
<path d="M11.386 1.1H14.95V16.5H11.386V1.1ZM4.39 16.5H0.826V1.1H4.39V16.5ZM11.65 10.186H4.126V7.172H11.65V10.186ZM22.4216 16.5V10.208L23.2356 12.364L16.4596 1.1H20.2436L25.4356 9.746H23.2576L28.4716 1.1H31.9696L25.1936 12.364L25.9856 10.208V16.5H22.4216ZM33.3319 16.5V1.1H39.9979C41.3765 1.1 42.5645 1.32733 43.5619 1.782C44.5592 2.222 45.3292 2.86 45.8719 3.696C46.4145 4.532 46.6859 5.52933 46.6859 6.688C46.6859 7.832 46.4145 8.822 45.8719 9.658C45.3292 10.494 44.5592 11.1393 43.5619 11.594C42.5645 12.034 41.3765 12.254 39.9979 12.254H35.3119L36.8959 10.648V16.5H33.3319ZM36.8959 11.044L35.3119 9.35H39.7999C40.8999 9.35 41.7212 9.11533 42.2639 8.646C42.8065 8.17667 43.0779 7.524 43.0779 6.688C43.0779 5.83733 42.8065 5.17733 42.2639 4.708C41.7212 4.23867 40.8999 4.004 39.7999 4.004H35.3119L36.8959 2.31V11.044ZM52.5083 7.304H59.9223V10.076H52.5083V7.304ZM52.7723 13.64H61.1543V16.5H49.2303V1.1H60.8683V3.96H52.7723V13.64ZM63.9901 16.5V1.1H70.6561C72.0347 1.1 73.2227 1.32733 74.2201 1.782C75.2174 2.222 75.9874 2.86 76.5301 3.696C77.0727 4.532 77.3441 5.52933 77.3441 6.688C77.3441 7.832 77.0727 8.822 76.5301 9.658C75.9874 10.4793 75.2174 11.11 74.2201 11.55C73.2227 11.99 72.0347 12.21 70.6561 12.21H65.9701L67.5541 10.648V16.5H63.9901ZM73.7801 16.5L69.9301 10.912H73.7361L77.6301 16.5H73.7801ZM67.5541 11.044L65.9701 9.372H70.4581C71.5581 9.372 72.3794 9.13733 72.9221 8.668C73.4647 8.184 73.7361 7.524 73.7361 6.688C73.7361 5.83733 73.4647 5.17733 72.9221 4.708C72.3794 4.23867 71.5581 4.004 70.4581 4.004H65.9701L67.5541 2.31V11.044ZM83.4458 7.304H90.8598V10.076H83.4458V7.304ZM83.7098 13.64H92.0918V16.5H80.1678V1.1H91.8058V3.96H83.7098V13.64ZM99.9876 16.764C98.7556 16.764 97.5749 16.6027 96.4456 16.28C95.3162 15.9427 94.4069 15.51 93.7176 14.982L94.9276 12.298C95.5876 12.7673 96.3649 13.156 97.2596 13.464C98.1689 13.7573 99.0856 13.904 100.01 13.904C100.714 13.904 101.278 13.838 101.704 13.706C102.144 13.5593 102.466 13.3613 102.672 13.112C102.877 12.8627 102.98 12.5767 102.98 12.254C102.98 11.8433 102.818 11.5207 102.496 11.286C102.173 11.0367 101.748 10.8387 101.22 10.692C100.692 10.5307 100.105 10.384 99.4596 10.252C98.8289 10.1053 98.1909 9.92933 97.5456 9.724C96.9149 9.51867 96.3356 9.25467 95.8076 8.932C95.2796 8.60933 94.8469 8.184 94.5096 7.656C94.1869 7.128 94.0256 6.45333 94.0256 5.632C94.0256 4.752 94.2602 3.95267 94.7296 3.234C95.2136 2.50067 95.9322 1.92133 96.8856 1.496C97.8536 1.056 99.0636 0.836 100.516 0.836C101.484 0.836 102.437 0.953333 103.376 1.188C104.314 1.408 105.143 1.74533 105.862 2.2L104.762 4.906C104.043 4.49533 103.324 4.19467 102.606 4.004C101.887 3.79867 101.183 3.696 100.494 3.696C99.8042 3.696 99.2396 3.77667 98.7996 3.938C98.3596 4.09933 98.0442 4.312 97.8536 4.576C97.6629 4.82533 97.5676 5.11867 97.5676 5.456C97.5676 5.852 97.7289 6.17467 98.0516 6.424C98.3742 6.65867 98.7996 6.84933 99.3276 6.996C99.8556 7.14267 100.435 7.28933 101.066 7.436C101.711 7.58267 102.349 7.75133 102.98 7.942C103.625 8.13267 104.212 8.38933 104.74 8.712C105.268 9.03467 105.693 9.46 106.016 9.988C106.353 10.516 106.522 11.1833 106.522 11.99C106.522 12.8553 106.28 13.6473 105.796 14.366C105.312 15.0847 104.586 15.664 103.618 16.104C102.664 16.544 101.454 16.764 99.9876 16.764ZM111.932 16.5V4.004H107.004V1.1H120.424V4.004H115.496V16.5H111.932ZM119.544 16.5L126.408 1.1H129.928L136.814 16.5H133.074L127.442 2.904H128.85L123.196 16.5H119.544ZM122.976 13.2L123.922 10.494H131.842L132.81 13.2H122.976ZM140.829 16.5V4.004H135.901V1.1H149.321V4.004H144.393V16.5H140.829ZM154.516 7.304H161.93V10.076H154.516V7.304ZM154.78 13.64H163.162V16.5H151.238V1.1H162.876V3.96H154.78V13.64Z" fill="white"/>
</svg>
