<svg width="170" height="50" viewBox="0 0 170 50" fill="none" xmlns="http://www.w3.org/2000/svg">
<path opacity="0.5" d="M54.8929 19.5527C54.8929 15.9864 51.9273 12.1988 46.7957 12.1988C41.033 12.1988 34.7025 17.1423 33.7349 27.0044C32.7465 36.9653 38.0464 41.3923 43.3885 41.3923C48.7308 41.3923 51.5278 38.9575 54.3883 35.7111C51.9273 32.0955 48.7517 33.7682 48.1418 34.1371C47.4688 34.5303 46.6064 35.0716 44.8398 35.0716C42.7785 35.0716 40.6754 33.9895 40.6754 29.4886C53.8836 27.9639 54.8929 23.1186 54.8929 19.5527ZM48.352 20.1429C48.2679 21.2495 47.8894 23.1435 41.2013 24.2007C42.6105 18.3475 45.3023 17.9048 46.5434 17.9048C47.7001 17.9048 48.436 18.9621 48.352 20.1429ZM25.9741 21.1019C25.9741 21.1019 23.1352 31.5298 22.9034 32.3906C22.8195 31.5053 20.7373 12.7889 20.7373 12.7889C15.8999 12.7889 13.3131 16.8224 11.9461 21.0775C11.9461 21.0775 8.49666 31.5298 8.20249 32.415C8.18123 31.6036 7.67655 21.2006 7.67655 21.2006C7.38204 15.986 3.30204 12.8139 0 12.8139L3.99599 41.171C9.06476 41.1465 11.7987 37.1377 13.2291 32.8826C13.2291 32.8826 16.2784 23.6599 16.4046 23.2417C16.4259 23.6351 18.5921 41.171 18.5921 41.171C23.6818 41.171 26.4161 37.4079 27.8883 33.3008L35.0179 12.8139C29.991 12.8139 27.3414 16.8224 25.9741 21.1019ZM73.569 12.1494C70.4353 12.1494 68.0378 14.1418 66.0187 17.0685V17.044L67.8276 0C63.6632 0 60.2772 4.23025 59.6251 10.5261L56.4701 40.9497C58.868 40.9497 61.4127 40.1383 62.7797 38.0722C63.9996 39.9165 65.8294 41.3923 68.5424 41.3923C75.5672 41.3923 80.3833 31.8497 80.3833 22.8973C80.3415 14.7319 76.9551 12.1499 73.569 12.1499V12.1494ZM72.9172 26.7836C72.1811 31.776 69.8044 35.1703 67.5118 35.1703C65.1985 35.1703 64.2101 33.9647 64.2101 33.9647C64.6516 29.5868 64.925 26.9062 65.7663 24.5944C66.6077 22.2827 68.6055 18.5932 70.6877 18.5932C72.7276 18.5932 73.6533 21.7659 72.9172 26.7831V26.7836ZM97.9238 12.813H93.0233L93.0446 12.518C93.3809 8.77965 94.1379 6.81227 96.6408 6.49272C98.3444 6.29586 99.1015 5.26267 99.2907 4.13162C99.4381 3.24636 99.901 0.171617 99.901 0.171617C90.058 0.0978451 86.9665 5.0662 86.1672 12.641L86.146 12.8134H86.0407C84.4424 12.8134 82.6759 14.9284 82.3815 17.609L82.2762 18.5929H85.5573L82.8021 45.2041L81.9607 49.9755C82.066 49.9755 82.1922 50 82.2971 50C86.9033 49.8031 89.8475 45.5484 90.4996 39.3753L92.6448 18.5929H94.1802C95.6942 18.5929 97.4613 16.8224 97.7767 13.8707L97.9238 12.8134V12.813ZM123.415 12.3215C117.757 12.3215 112.415 17.1913 110.774 24.8398C109.134 32.4889 111.615 41.5395 119.944 41.5395C128.252 41.5395 133.047 32.12 133.047 24.2741C133.047 16.4776 128.525 12.3215 123.415 12.3215ZM125.707 26.537C125.412 30.0047 124.108 35.2681 120.533 35.2681C116.936 35.2681 117.441 29.1194 117.799 26.1925C118.177 23.0693 119.67 18.6174 122.889 18.6174C125.77 18.6174 126.043 22.6263 125.707 26.537ZM160.998 21.1016C160.998 21.1016 158.158 31.5294 157.927 32.3902C157.844 31.5049 155.761 12.7886 155.761 12.7886C150.924 12.7886 148.337 16.822 146.97 21.0771C146.97 21.0771 143.521 31.5294 143.226 32.4147C143.205 31.6031 142.7 21.2001 142.7 21.2001C142.406 15.9857 138.326 12.8134 135.024 12.8134L138.999 41.1706C144.068 41.1462 146.802 37.1372 148.231 32.8821C148.231 32.8821 151.281 23.6595 151.387 23.2414C151.408 23.6346 153.573 41.1706 153.573 41.1706C158.663 41.1706 161.398 37.4075 162.87 33.3003L170 12.8139C164.994 12.8139 162.344 16.8224 160.998 21.1019V21.1016ZM102.551 0.172006L98.4285 39.0557L97.5874 43.8517C97.6924 43.8517 97.8185 43.8765 97.9238 43.8765C102.361 43.8028 105.516 39.2525 106.105 33.5221L108.481 11.2149C109.197 4.40225 105.726 0.172394 102.551 0.172394V0.172006Z" fill="white"/>
</svg>
