<svg width="136" height="50" viewBox="0 0 136 50" fill="none" xmlns="http://www.w3.org/2000/svg">
<g opacity="0.5">
<path d="M17.5594 38.7796C8.01948 38.7796 0 30.0794 0 19.3909C0 8.70249 8.01948 0.00233024 17.5594 0.00233024C21.9934 -0.0765257 26.2689 1.84885 29.4207 5.34387L26.0633 9.10552C23.7737 6.64246 20.7092 5.29075 17.5354 5.34387C10.6843 5.49377 5.20025 11.7592 5.20025 19.4366C5.20025 27.114 10.6843 33.3795 17.5354 33.5294C22.0536 33.5294 24.6244 31.4981 26.2743 29.6495C27.6269 28.1341 28.5094 25.9631 28.85 22.9806H17.6074V17.6498H33.4736C33.6533 18.7415 33.7384 19.8501 33.7279 20.9601C33.7279 24.9313 32.7686 29.8483 29.6318 33.352C26.5957 36.888 22.7107 38.7796 17.5594 38.7796Z" fill="white"/>
<path d="M57.5369 26.2908C57.5408 31.3451 54.8262 35.9042 50.6595 37.8414C46.4928 39.7787 41.6948 38.7124 38.5035 35.14C35.3122 31.5675 34.3564 26.1928 36.0818 21.5228C37.8073 16.8527 41.8742 13.8075 46.3854 13.8075C49.3543 13.7593 52.2143 15.0586 54.3147 17.4099C56.4151 19.7612 57.5773 22.9645 57.5369 26.2908ZM52.6542 26.2908C52.6542 21.7983 49.7524 18.7245 46.3854 18.7245C43.0184 18.7245 40.1166 21.7983 40.1166 26.2908C40.1166 30.7833 43.0184 33.8571 46.3854 33.8571C49.7524 33.8571 52.6542 30.7403 52.6542 26.2908Z" fill="white"/>
<path d="M82.0317 26.2907C82.0492 31.3636 79.3352 35.948 75.157 37.9029C70.9789 39.8578 66.1609 38.7976 62.953 35.2174C59.7452 31.6372 58.7803 26.2433 60.509 21.5546C62.2376 16.8659 66.3188 13.8074 70.8467 13.8074C73.8182 13.7609 76.6807 15.0596 78.7861 17.4094C80.8916 19.7592 82.0618 22.9613 82.0317 26.2907ZM77.1347 26.2907C77.1347 21.7982 74.2233 18.7244 70.8467 18.7244C67.4701 18.7244 64.5587 21.7982 64.5587 26.2907C64.5587 30.7832 67.4701 33.857 70.8467 33.857C74.2233 33.857 77.1347 30.7402 77.1347 26.2907Z" fill="white"/>
<path d="M105.381 14.5651V36.9953C105.381 46.2167 100.527 49.9998 94.7856 49.9998C90.4597 50.0238 86.5532 47.1052 84.91 42.6216L89.1739 40.6333C89.9317 42.6646 91.7927 45.0775 94.7856 45.0775C98.4596 45.0775 100.738 42.5249 100.738 37.7476V35.9205H100.57C99.082 37.7863 96.9366 38.824 94.7041 38.7579C89.1308 38.7579 84.037 33.3196 84.037 26.323C84.037 19.3263 89.1308 13.7913 94.7041 13.7913C96.9258 13.7302 99.0633 14.7445 100.57 16.5749H100.738V14.5651H105.381ZM101.064 26.3391C101.064 21.9433 98.4453 18.7244 95.1118 18.7244C91.7783 18.7244 88.9053 21.9487 88.9053 26.3391C88.9053 30.7295 91.7352 33.8624 95.1118 33.8624C98.4884 33.8624 101.074 30.6918 101.074 26.3391H101.064Z" fill="white"/>
<path d="M113.251 1.47997V38.0217H108.383V1.47997H113.251Z" fill="white"/>
<path d="M131.99 30.407L135.789 33.2443C133.722 36.722 130.232 38.8019 126.503 38.7793C120.172 38.7793 115.443 33.2927 115.443 26.296C115.443 18.8695 120.21 13.8127 125.952 13.8127C131.693 13.8127 134.585 18.9662 135.492 21.7552L136 23.1739L121.103 30.0792C122.244 32.5834 124.014 33.8408 126.503 33.8408C128.993 33.8408 130.729 32.4866 131.99 30.407ZM120.297 25.9145L130.259 21.2823C129.712 19.7239 128.062 18.633 126.124 18.633C124.485 18.7172 122.946 19.5362 121.851 20.9057C120.757 22.2752 120.2 24.0802 120.306 25.9145H120.297Z" fill="white"/>
</g>
</svg>
