<svg width="166" height="50" viewBox="0 0 166 50" fill="none" xmlns="http://www.w3.org/2000/svg">
<path opacity="0.5" d="M24.2854 24.1523C23.3437 22.8613 22.3483 21.799 22.3483 19.3918V11.4038C22.3483 8.00147 22.5904 4.89501 20.0884 2.55509C18.1244 0.672386 14.8556 0 12.3536 0C7.47061 0 2.00918 1.82891 0.865781 7.86699C0.744715 8.49904 1.21553 8.83524 1.63253 8.94282L6.6097 9.48073C7.08051 9.45384 7.4168 8.9966 7.51097 8.53938C7.94142 6.45496 9.67671 5.44638 11.6407 5.44638C12.7034 5.44638 13.9006 5.84981 14.5194 6.77771C15.2457 7.84009 15.1516 9.27901 15.1516 10.5028V11.1752C12.1653 11.4979 8.27772 11.7265 5.47975 12.9503C3.81565 13.6177 2.39746 14.7811 1.41793 16.2824C0.438394 17.7838 -0.0549783 19.5503 0.0048659 21.3417C0.0048659 26.6805 3.36781 29.3432 7.69929 29.3432C11.3582 29.3432 13.349 28.4826 16.1739 25.6182C17.1021 26.9629 17.398 27.6353 19.1064 29.0474C19.2982 29.1498 19.5165 29.1919 19.7326 29.1679C19.9487 29.1438 20.1525 29.0549 20.3171 28.9129L24.2719 25.524C24.7024 25.1744 24.6216 24.623 24.2854 24.1523ZM15.1381 16.3929C15.1381 18.4101 15.1919 20.0642 14.1965 21.8528C13.3759 23.2917 12.0711 24.1792 10.6318 24.1792C8.65437 24.1792 7.51097 22.6731 7.51097 20.4542C7.51097 16.0836 11.4254 15.2902 15.1516 15.2902L15.1381 16.3929ZM91.6385 24.1523C90.6969 22.8613 89.7014 21.799 89.7014 19.3918V11.4038C89.7014 8.00147 89.9436 4.89501 87.4415 2.55509C85.4641 0.672386 82.1953 0 79.7067 0C74.8103 0 69.3489 1.82891 68.2189 7.86699C68.0844 8.49904 68.5687 8.84869 68.9857 8.94282L73.9628 9.48073C74.4202 9.45384 74.7699 8.9966 74.8506 8.53938C75.2811 6.45496 77.0298 5.44638 78.9803 5.44638C80.043 5.44638 81.2402 5.84981 81.859 6.77771C82.5854 7.84009 82.4913 9.27901 82.4913 10.5028V11.1752C79.5184 11.5114 75.6174 11.7265 72.8329 12.9503C71.1651 13.6139 69.743 14.776 68.7607 16.2779C67.7783 17.7798 67.2838 19.5483 67.3446 21.3417C67.3446 26.6805 70.7075 29.3432 75.039 29.3432C78.6979 29.3432 80.6887 28.4826 83.5136 25.6182C84.4418 26.9629 84.7512 27.6353 86.4595 29.0474C86.6508 29.1517 86.8695 29.1948 87.0861 29.1707C87.3026 29.1467 87.5065 29.0567 87.6702 28.9129V28.9263C88.706 28.0119 90.5758 26.3981 91.625 25.524C92.0286 25.1744 91.9882 24.623 91.6385 24.1523ZM81.5362 21.8528C80.7156 23.2917 79.4108 24.1792 77.9715 24.1792C75.994 24.1792 74.8506 22.6731 74.8506 20.4542C74.8506 16.0836 78.7786 15.2902 82.4913 15.2902V16.4064C82.4913 18.4101 82.5451 20.0642 81.5362 21.8528ZM150.947 28.9801H145.822C145.579 28.9667 145.351 28.8624 145.181 28.688C145.012 28.5136 144.914 28.2818 144.908 28.0388L144.894 1.68098C144.918 1.4385 145.032 1.21384 145.214 1.05182C145.396 0.889801 145.632 0.80233 145.876 0.806864H150.638C150.851 0.812682 151.055 0.888254 151.221 1.02192C151.386 1.15559 151.503 1.33993 151.553 1.5465V5.58086H151.66C153.1 1.97683 155.104 0.25551 158.655 0.25551C159.839 0.196792 161.018 0.45193 162.071 0.995094C163.125 1.53826 164.016 2.35014 164.655 3.34851C166 5.47327 166 9.01006 166 11.5651V28.1598C165.961 28.3936 165.839 28.6055 165.656 28.7563C165.473 28.9071 165.242 28.9866 165.005 28.9801H159.853C159.629 28.9703 159.415 28.8831 159.248 28.7336C159.082 28.584 158.972 28.3812 158.938 28.1598V13.8378C158.938 10.96 159.274 6.75082 155.736 6.75082C155.091 6.77523 154.466 6.98646 153.939 7.35886C153.411 7.73126 153.003 8.24882 152.763 8.84869C152.13 10.4322 151.85 12.1349 151.943 13.8378V28.0388C151.932 28.2944 151.822 28.5359 151.637 28.7117C151.451 28.8875 151.203 28.9838 150.947 28.9801ZM129.304 0.25551C136.931 0.25551 141.047 6.80461 141.047 15.1154C141.047 23.1572 136.5 29.5449 129.304 29.5449C121.824 29.5449 117.735 22.9958 117.735 14.8464C117.735 6.64324 121.865 0.25551 129.304 0.25551ZM129.357 5.63465C125.564 5.63465 125.322 10.7986 125.322 14.0127C125.322 17.2267 125.268 24.0986 129.304 24.0986C133.285 24.0986 133.474 18.558 133.474 15.1826C133.558 12.8268 133.3 10.4713 132.707 8.18973C132.128 6.36082 130.985 5.63465 129.344 5.63465H129.357ZM34.3607 28.9801H29.2222C28.9899 28.9719 28.7683 28.8804 28.5979 28.7224C28.4275 28.5644 28.3197 28.3504 28.294 28.1195V1.76166C28.294 1.22375 28.7513 0.820317 29.2894 0.820317H34.0783C34.576 0.833765 34.9795 1.22375 35.0199 1.69442V5.13708H35.114C36.3516 1.80201 38.7057 0.25551 41.8668 0.25551C45.0818 0.25551 47.0996 1.80201 48.5389 5.13708C49.0494 3.67659 50.0115 2.41635 51.2859 1.53875C52.5604 0.661159 54.0811 0.211737 55.628 0.25551C57.7803 0.25551 60.1344 1.14306 61.5737 3.13335C63.2148 5.35224 62.8785 8.57972 62.8785 11.4038V28.0388C62.8785 28.5632 62.4212 28.9801 61.8831 28.9801H56.7445C56.5006 28.9698 56.2699 28.8665 56.0997 28.6915C55.9296 28.5164 55.833 28.2828 55.8298 28.0388V14.053C55.8298 12.9503 55.924 10.18 55.6818 9.13109C55.2917 7.35597 54.1483 6.84495 52.6552 6.84495C51.9883 6.86706 51.3426 7.08385 50.7975 7.4686C50.2525 7.85335 49.8321 8.38922 49.5882 9.01006C49.0501 10.3548 49.1174 12.5603 49.1174 14.0664V28.0388C49.1174 28.5767 48.6735 28.9801 48.1219 28.9801H42.9833C42.7405 28.9667 42.5116 28.8624 42.3421 28.688C42.1726 28.5136 42.075 28.2818 42.0686 28.0388V14.053C42.0686 11.1214 42.5394 6.79117 38.894 6.79117C35.2082 6.79117 35.3427 11.0138 35.3427 14.053V28.0388C35.3428 28.1659 35.3172 28.2917 35.2674 28.4086C35.2176 28.5255 35.1446 28.6311 35.0528 28.7191C34.9611 28.807 34.8524 28.8755 34.7335 28.9204C34.6146 28.9652 34.4878 28.9856 34.3607 28.9801ZM95.9565 5.45982V1.69442C95.9565 1.44476 96.0557 1.20532 96.2323 1.02878C96.4089 0.852248 96.6484 0.753077 96.8981 0.753077H113.807C114.345 0.753077 114.776 1.12961 114.776 1.69442V4.9219C114.776 5.45982 114.318 6.17256 113.511 7.28873L104.767 19.7818C107.996 19.7011 111.44 20.1852 114.399 21.8393C115.058 22.2158 115.233 22.7807 115.287 23.3186V27.3395C115.287 27.8774 114.681 28.5229 114.049 28.2002C111.288 26.7797 108.226 26.041 105.121 26.0457C102.015 26.0503 98.9558 26.7983 96.1986 28.227C95.6202 28.5363 95.0014 27.9043 95.0014 27.3529V23.5337C95.0014 22.9286 95.0014 21.8797 95.6337 20.9518L105.763 6.41462H96.9385C96.8126 6.41821 96.6872 6.39653 96.5699 6.35084C96.4525 6.30514 96.3455 6.23638 96.2552 6.1486C96.1649 6.06083 96.0931 5.95583 96.0441 5.83983C95.9951 5.72383 95.9699 5.59919 95.97 5.47327L95.9565 5.45982ZM106.96 34.5206C105.723 32.9472 98.8083 33.781 95.6875 34.1441C94.7458 34.2651 94.6113 33.4448 95.4588 32.8397C100.974 28.9667 110.027 30.0828 111.063 31.3873C112.139 32.6917 110.794 41.7556 105.615 46.0858C104.821 46.7582 104.068 46.3951 104.418 45.521C105.588 42.6162 108.184 36.1075 106.96 34.5206ZM102.938 39.1064C93.2931 46.2203 79.3166 49.9991 67.2773 49.9991C51.1912 50.0834 35.6532 44.1607 23.7069 33.391C22.8057 32.5841 23.6128 31.468 24.7024 32.0866C37.9738 39.6732 52.9983 43.66 68.2862 43.6517C78.9804 43.6517 90.7238 41.4328 101.539 36.8471C103.167 36.1747 104.539 37.9229 102.938 39.1064Z" fill="white"/>
</svg>
