<svg width="50" height="50" viewBox="0 0 50 50" fill="none" xmlns="http://www.w3.org/2000/svg">
<path opacity="0.5" d="M19.0257 10.7875L19.0327 10.7903C19.1771 10.175 19.7022 9.72222 20.3592 9.72222H39.0724C39.096 9.72222 39.1196 9.7125 39.1432 9.71389C38.7446 3.07639 33.1759 0 28.2629 0H9.54967C8.89126 0 8.36621 0.465278 8.22313 1.07917L8.21619 1.07639L0.0361151 38.6292L0.0541727 38.6306C0.0347261 38.7195 0 38.8042 0 38.9C0 39.6681 0.620902 40.2764 1.38904 40.2764H12.6L19.0257 10.7875Z" fill="white"/>
<path opacity="0.3" d="M39.1437 9.7139C39.2173 10.9306 39.1368 12.2542 38.8256 13.7167C37.0463 22.0431 30.6136 26.3764 22.6641 26.3764C22.6641 26.3764 17.8441 26.3764 16.6732 26.3764C15.9495 26.3764 15.6078 26.8014 15.4508 27.1264L13.0339 38.3056L12.6102 40.2903H12.6019L10.8475 48.3403L10.8656 48.3417C10.8461 48.4306 10.8114 48.5153 10.8114 48.6111C10.8114 49.3792 11.4323 50 12.2004 50H22.3863L22.4044 49.9861C23.06 49.9764 23.5809 49.5083 23.717 48.8917L23.742 48.8708L26.2589 37.182C26.2589 37.182 26.434 36.0667 27.6063 36.0667C28.7787 36.0667 33.4097 36.0667 33.4097 36.0667C41.3592 36.0667 47.8572 31.7528 49.6379 23.425C51.6409 14.0361 44.943 9.74862 39.1437 9.7139Z" fill="white"/>
<path opacity="0.5" d="M20.3591 9.72204C19.7007 9.72204 19.1757 10.1748 19.0326 10.7901L19.0256 10.7873L15.4489 27.1276C15.6058 26.8026 15.9475 26.3776 16.6712 26.3776C17.8436 26.3776 22.5538 26.3776 22.5538 26.3776C30.5033 26.3776 37.0443 22.0443 38.8237 13.7179C39.1362 12.2554 39.2154 10.9318 39.1418 9.7151C39.1195 9.71232 39.0945 9.72204 39.0723 9.72204H20.3591Z" fill="white"/>
</svg>
