<?xml version="1.0" encoding="utf-8"?><svg width="40" height="40" fill="none" xmlns="http://www.w3.org/2000/svg" viewBox="0 0 40 40"><path d="M20 36a56.644 56.644 0 01-7-6.276c-3.2-3.397-7-8.455-7-13.276-.001-2.462.819-4.868 2.357-6.916 1.539-2.047 3.726-3.643 6.285-4.585a15.635 15.635 0 018.092-.707c2.717.48 5.212 1.667 7.17 3.408a12.38 12.38 0 013.04 4.036A11.176 11.176 0 0134 16.448c0 4.82-3.8 9.88-7 13.276A56.636 56.636 0 0120 36zm0-24.884c-1.591 0-3.117.562-4.243 1.562-1.125 1-1.757 2.356-1.757 3.77 0 1.415.632 2.77 1.757 3.77 1.126 1 2.652 1.563 4.243 1.563 1.591 0 3.117-.562 4.243-1.562 1.125-1 1.757-2.357 1.757-3.77 0-1.415-.632-2.771-1.757-3.771-1.126-1-2.652-1.562-4.243-1.562z" fill="#7D9B8F"/></svg>