<?xml version="1.0" encoding="utf-8"?><svg width="40" height="40" fill="none" xmlns="http://www.w3.org/2000/svg" viewBox="0 0 40 40"><path d="M6.152 10.487c2.338-2.535 5.876-3.82 10.515-3.82h1.666v4.698l-1.34.268c-2.283.457-3.871 1.355-4.721 2.674a4.837 4.837 0 00-.73 2.36h5.125a1.667 1.667 0 011.666 1.666V30A3.337 3.337 0 0115 33.333H5a1.667 1.667 0 01-1.667-1.666v-8.334l.005-4.865c-.015-.185-.331-4.568 2.814-7.981zm27.181 22.846h-10a1.666 1.666 0 01-1.666-1.666v-8.334l.005-4.865c-.015-.185-.332-4.568 2.813-7.981 2.338-2.535 5.877-3.82 10.515-3.82h1.667v4.698l-1.34.268c-2.284.457-3.872 1.355-4.722 2.674a4.836 4.836 0 00-.73 2.36H35a1.667 1.667 0 011.667 1.666V30a3.337 3.337 0 01-3.334 3.333z" fill="#fff"/></svg>