<?xml version="1.0" encoding="utf-8"?><svg width="12" height="13" fill="none" xmlns="http://www.w3.org/2000/svg" viewBox="0 0 12 13"><path d="M11.2 6.785H1.6v-4.5a1.282 1.282 0 01.378-.912l.01-.01a1.292 1.292 0 011.465-.254 1.978 1.978 0 00.294 2.416l.274.273-.504.504.566.566.504-.504 2.792-2.792.504-.504-.566-.566-.504.504L6.54.732A1.977 1.977 0 004.016.508a2.09 2.09 0 00-2.594.29l-.01.01A2.076 2.076 0 00.8 2.284v4.5H0v.8h.8v.768c0 .064.01.128.03.19l.745 2.232a.6.6 0 00.57.41h.322l-.292 1h.833l.292-1h5.202l.3 1h.835l-.3-1h.519a.598.598 0 00.569-.41l.744-2.233a.6.6 0 00.031-.19v-.767h.8v-.8h-.8zM4.313 1.298a1.176 1.176 0 011.66 0l.274.274-1.66 1.66-.274-.273a1.176 1.176 0 010-1.661zM10.4 8.32l-.688 2.065H2.288L1.6 8.32v-.735h8.8v.735z" fill="#000"/></svg>