<?xml version="1.0" encoding="utf-8"?><svg width="12" height="12" fill="none" xmlns="http://www.w3.org/2000/svg" viewBox="0 0 12 12"><path d="M8.625.92a1.875 1.875 0 011.871 1.752l.004.123v1.912a1.876 1.876 0 011.495 1.71l.005.128v4.5a.375.375 0 01-.744.067l-.006-.067V9.17H.75v1.875a.375.375 0 01-.744.067L0 11.045v-4.5a1.875 1.875 0 011.5-1.838V2.795A1.875 1.875 0 013.252.923L3.375.92h5.25zm1.5 4.5h-8.25a1.125 1.125 0 00-1.12 1.016l-.005.109V8.42h10.5V6.545a1.125 1.125 0 00-1.016-1.12l-.109-.005zm-1.5-3.75h-5.25a1.125 1.125 0 00-1.12 1.017l-.005.108V4.67H3v-.375a.375.375 0 01.375-.375H5.25a.375.375 0 01.375.375v.375h.75v-.375a.375.375 0 01.375-.375h1.875A.375.375 0 019 4.295v.375h.75V2.795a1.125 1.125 0 00-1.016-1.12l-.109-.005z" fill="#000"/></svg>