<?xml version="1.0" encoding="utf-8"?><svg width="164" height="17" fill="none" xmlns="http://www.w3.org/2000/svg" viewBox="0 0 164 17"><path d="M11.386 1.1h3.564v15.4h-3.564V1.1zM4.39 16.5H.826V1.1H4.39v15.4zm7.26-6.314H4.126V7.172h7.524v3.014zM22.422 16.5v-6.292l.814 2.156L16.46 1.1h3.784l5.192 8.646h-2.178L28.472 1.1h3.498l-6.776 11.264.792-2.156V16.5h-3.564zm10.91 0V1.1h6.666c1.379 0 2.567.227 3.564.682.997.44 1.767 1.078 2.31 1.914.542.836.814 1.833.814 2.992 0 1.144-.272 2.134-.814 2.97-.543.836-1.313 1.481-2.31 1.936-.997.44-2.185.66-3.564.66h-4.686l1.584-1.606V16.5h-3.564zm3.564-5.456L35.312 9.35H39.8c1.1 0 1.921-.235 2.464-.704.542-.47.814-1.122.814-1.958 0-.85-.272-1.51-.814-1.98-.543-.47-1.364-.704-2.464-.704h-4.488l1.584-1.694v8.734zm15.612-3.74h7.414v2.772h-7.414V7.304zm.264 6.336h8.382v2.86H49.23V1.1h11.638v2.86h-8.096v9.68zM63.99 16.5V1.1h6.666c1.379 0 2.567.227 3.564.682.997.44 1.767 1.078 2.31 1.914.543.836.814 1.833.814 2.992 0 1.144-.271 2.134-.814 2.97-.543.821-1.313 1.452-2.31 1.892-.997.44-2.185.66-3.564.66H65.97l1.584-1.562V16.5H63.99zm9.79 0l-3.85-5.588h3.806L77.63 16.5h-3.85zm-6.226-5.456L65.97 9.372h4.488c1.1 0 1.921-.235 2.464-.704.543-.484.814-1.144.814-1.98 0-.85-.271-1.51-.814-1.98-.543-.47-1.364-.704-2.464-.704H65.97l1.584-1.694v8.734zm15.892-3.74h7.414v2.772h-7.414V7.304zm.264 6.336h8.382v2.86H80.168V1.1h11.638v2.86H83.71v9.68zm16.278 3.124a12.83 12.83 0 01-3.542-.484c-1.13-.337-2.04-.77-2.728-1.298l1.21-2.684c.66.47 1.437.858 2.332 1.166a8.91 8.91 0 002.75.44c.704 0 1.268-.066 1.694-.198.44-.147.762-.345.968-.594.205-.25.308-.535.308-.858 0-.41-.162-.733-.484-.968-.323-.25-.748-.447-1.276-.594a19.264 19.264 0 00-1.76-.44 24.972 24.972 0 01-1.914-.528 8.167 8.167 0 01-1.738-.792 3.995 3.995 0 01-1.298-1.276c-.323-.528-.484-1.203-.484-2.024 0-.88.234-1.68.704-2.398.484-.733 1.202-1.313 2.156-1.738.968-.44 2.178-.66 3.63-.66.968 0 1.921.117 2.86.352.938.22 1.767.557 2.486 1.012l-1.1 2.706a9.019 9.019 0 00-2.156-.902 7.67 7.67 0 00-2.112-.308c-.69 0-1.254.08-1.694.242-.44.161-.756.374-.946.638-.191.25-.286.543-.286.88 0 .396.16.719.484.968.322.235.748.425 1.276.572.528.147 1.107.293 1.738.44.645.147 1.283.315 1.914.506.645.19 1.232.447 1.76.77s.953.748 1.276 1.276c.337.528.506 1.195.506 2.002 0 .865-.242 1.657-.726 2.376-.484.719-1.21 1.298-2.178 1.738-.954.44-2.164.66-3.63.66zm11.944-.264V4.004h-4.928V1.1h13.42v2.904h-4.928V16.5h-3.564zm7.612 0l6.864-15.4h3.52l6.886 15.4h-3.74l-5.632-13.596h1.408L123.196 16.5h-3.652zm3.432-3.3l.946-2.706h7.92l.968 2.706h-9.834zm17.853 3.3V4.004h-4.928V1.1h13.42v2.904h-4.928V16.5h-3.564zm13.687-9.196h7.414v2.772h-7.414V7.304zm.264 6.336h8.382v2.86h-11.924V1.1h11.638v2.86h-8.096v9.68z" fill="#fff"/></svg>