<?xml version="1.0" encoding="utf-8"?><svg width="50" height="50" fill="none" xmlns="http://www.w3.org/2000/svg" viewBox="0 0 50 50"><path opacity=".5" d="M19.026 10.787l.007.003a1.357 1.357 0 011.326-1.068h18.713c.024 0 .048-.01.071-.008C38.745 3.076 33.176 0 28.263 0H9.55C8.89 0 8.366.465 8.223 1.08l-.007-.004L.036 38.63l.018.002c-.02.088-.054.173-.054.269 0 .768.62 1.376 1.389 1.376H12.6l6.426-29.489z" fill="#fff"/><path opacity=".3" d="M39.144 9.714a14.79 14.79 0 01-.318 4.003c-1.78 8.326-8.212 12.66-16.162 12.66h-5.99c-.724 0-1.066.424-1.223.75l-2.417 11.179-.424 1.984h-.008l-1.755 8.05.019.002c-.02.089-.055.173-.055.27 0 .767.621 1.388 1.39 1.388h10.185l.018-.014c.656-.01 1.177-.478 1.313-1.094l.025-.021 2.517-11.689s.175-1.115 1.347-1.115h5.804c7.95 0 14.447-4.314 16.228-12.642 2.003-9.389-4.695-13.676-10.494-13.711z" fill="#fff"/><path opacity=".5" d="M20.36 9.722c-.66 0-1.184.453-1.327 1.068l-.007-.003-3.577 16.34c.157-.324.498-.75 1.222-.75h5.883c7.95 0 14.49-4.333 16.27-12.66.312-1.462.391-2.785.318-4.002-.023-.003-.048.007-.07.007H20.36z" fill="#fff"/></svg>