<?xml version="1.0" encoding="utf-8"?><svg width="166" height="50" fill="none" xmlns="http://www.w3.org/2000/svg" viewBox="0 0 166 50"><path opacity=".5" d="M24.285 24.152c-.941-1.29-1.937-2.353-1.937-4.76v-7.988c0-3.403.242-6.509-2.26-8.849C18.124.672 14.856 0 12.354 0 7.47 0 2.009 1.829.866 7.867c-.121.632.35.968.767 1.076l4.977.538c.47-.027.807-.484.901-.942.43-2.084 2.166-3.093 4.13-3.093 1.062 0 2.26.404 2.878 1.332.727 1.062.633 2.501.633 3.725v.672c-2.987.323-6.874.551-9.672 1.775a8.73 8.73 0 00-5.475 8.392c0 5.338 3.363 8.001 7.694 8.001 3.66 0 5.65-.86 8.475-3.725.928 1.345 1.224 2.017 2.932 3.43a1.077 1.077 0 001.211-.135l3.955-3.389c.43-.35.35-.901.013-1.372zm-9.147-7.76c0 2.018.054 3.672-.941 5.46-.821 1.44-2.126 2.327-3.565 2.327-1.978 0-3.121-1.506-3.121-3.725 0-4.37 3.914-5.164 7.64-5.164l-.013 1.103zm76.5 7.76c-.941-1.29-1.937-2.353-1.937-4.76v-7.988c0-3.403.243-6.509-2.26-8.849C85.465.672 82.196 0 79.708 0 74.81 0 69.349 1.829 68.219 7.867c-.135.632.35.982.767 1.076l4.977.538c.457-.027.807-.484.888-.942.43-2.084 2.179-3.093 4.13-3.093 1.062 0 2.26.404 2.878 1.332.726 1.062.632 2.501.632 3.725v.672c-2.973.336-6.874.551-9.658 1.775a8.716 8.716 0 00-5.488 8.392c0 5.338 3.362 8.001 7.694 8.001 3.659 0 5.65-.86 8.475-3.725.928 1.345 1.237 2.017 2.946 3.43a1.063 1.063 0 001.21-.135v.013a230.909 230.909 0 013.955-3.402c.404-.35.363-.901.013-1.372zm-10.102-2.3c-.82 1.44-2.125 2.327-3.564 2.327-1.978 0-3.121-1.506-3.121-3.725 0-4.37 3.928-5.164 7.64-5.164v1.116c0 2.004.054 3.658-.955 5.447zm69.411 7.128h-5.125a.969.969 0 01-.914-.941l-.014-26.358a.97.97 0 01.982-.874h4.762a.97.97 0 01.915.74V5.58h.107c1.44-3.604 3.444-5.325 6.995-5.325a6.726 6.726 0 016 3.093C166 5.473 166 9.01 166 11.565V28.16a.982.982 0 01-.995.82h-5.152a.971.971 0 01-.915-.82V13.838c0-2.878.336-7.087-3.202-7.087a3.334 3.334 0 00-2.973 2.098 11.72 11.72 0 00-.82 4.989v14.2a.984.984 0 01-.996.941zM129.304.256c7.627 0 11.743 6.549 11.743 14.86 0 8.041-4.547 14.429-11.743 14.429-7.48 0-11.569-6.55-11.569-14.699 0-8.203 4.13-14.59 11.569-14.59zm.053 5.379c-3.793 0-4.035 5.164-4.035 8.378 0 3.214-.054 10.086 3.982 10.086 3.981 0 4.17-5.541 4.17-8.916a24.35 24.35 0 00-.767-6.993c-.579-1.83-1.722-2.555-3.363-2.555h.013zM34.361 28.98h-5.139a.968.968 0 01-.928-.86V1.761c0-.538.457-.942.995-.942h4.79a.972.972 0 01.94.874v3.443h.095C36.352 1.802 38.706.256 41.867.256c3.215 0 5.233 1.546 6.672 4.881A7.29 7.29 0 0155.628.256c2.152 0 4.506.887 5.946 2.877 1.64 2.22 1.305 5.447 1.305 8.27V28.04c0 .524-.458.941-.996.941h-5.139a.956.956 0 01-.914-.941V14.053c0-1.103.094-3.873-.148-4.922-.39-1.775-1.534-2.286-3.027-2.286a3.418 3.418 0 00-3.067 2.165c-.538 1.345-.47 3.55-.47 5.056V28.04c0 .538-.445.941-.996.941h-5.139a.969.969 0 01-.914-.941V14.053c0-2.932.47-7.262-3.175-7.262-3.686 0-3.551 4.223-3.551 7.262v13.986a.942.942 0 01-.982.941zM95.957 5.46V1.694a.941.941 0 01.941-.94h16.909c.538 0 .969.376.969.94v3.228c0 .538-.458 1.25-1.265 2.367l-8.744 12.493c3.229-.08 6.673.403 9.632 2.057.659.377.834.942.888 1.48v4.02c0 .538-.606 1.184-1.238.861a19.453 19.453 0 00-17.85.027c-.579.31-1.198-.323-1.198-.874v-3.82c0-.604 0-1.653.633-2.581l10.129-14.537h-8.825a.942.942 0 01-.968-.942l-.013-.013zm11.003 29.06c-1.237-1.573-8.152-.739-11.272-.376-.942.121-1.077-.7-.23-1.304 5.516-3.873 14.569-2.757 15.605-1.453 1.076 1.305-.269 10.369-5.448 14.699-.794.672-1.547.31-1.197-.565 1.17-2.905 3.766-9.413 2.542-11zm-4.022 4.586C93.293 46.22 79.317 50 67.278 50a64.566 64.566 0 01-43.571-16.608c-.901-.807-.094-1.923.995-1.304a87.725 87.725 0 0043.584 11.565c10.694 0 22.438-2.22 33.253-6.805 1.628-.672 3 1.076 1.399 2.26z" fill="#fff"/></svg>