<?xml version="1.0" encoding="utf-8"?><svg width="170" height="50" fill="none" xmlns="http://www.w3.org/2000/svg" viewBox="0 0 170 50"><path opacity=".5" d="M54.893 19.553c0-3.567-2.966-7.354-8.097-7.354-5.763 0-12.093 4.943-13.061 14.805-.989 9.961 4.311 14.388 9.654 14.388 5.342 0 8.139-2.434 11-5.68-2.462-3.617-5.637-1.944-6.247-1.575-.673.393-1.536.935-3.302.935-2.062 0-4.165-1.083-4.165-5.583 13.209-1.525 14.218-6.37 14.218-9.936zm-6.541.59c-.084 1.107-.463 3-7.15 4.058 1.409-5.854 4.1-6.296 5.341-6.296 1.157 0 1.893 1.057 1.809 2.238zm-22.378.959s-2.839 10.428-3.07 11.289c-.084-.886-2.167-19.602-2.167-19.602-4.837 0-7.424 4.033-8.79 8.289 0 0-3.45 10.452-3.745 11.337-.02-.811-.525-11.214-.525-11.214-.295-5.215-4.375-8.387-7.677-8.387L3.996 41.17c5.069-.024 7.803-4.033 9.233-8.288 0 0 3.05-9.223 3.176-9.641.02.393 2.187 17.929 2.187 17.929 5.09 0 7.824-3.763 9.296-7.87l7.13-20.487c-5.027 0-7.677 4.008-9.044 8.288zm47.595-8.953c-3.134 0-5.531 1.993-7.55 4.92v-.025L67.828 0c-4.165 0-7.55 4.23-8.203 10.526L56.47 40.95c2.398 0 4.943-.812 6.31-2.878 1.22 1.844 3.05 3.32 5.762 3.32 7.025 0 11.841-9.542 11.841-18.495-.041-8.165-3.428-10.747-6.814-10.747zm-.652 14.635c-.736 4.992-3.113 8.386-5.405 8.386-2.314 0-3.302-1.205-3.302-1.205.442-4.378.715-7.059 1.556-9.37.842-2.312 2.84-6.002 4.922-6.002 2.04 0 2.965 3.173 2.23 8.19zm25.007-13.971h-4.9l.02-.295c.337-3.738 1.094-5.706 3.597-6.025 1.703-.197 2.46-1.23 2.65-2.361.147-.886.61-3.96.61-3.96C90.058.098 86.967 5.066 86.167 12.64l-.021.172h-.105c-1.599 0-3.365 2.115-3.66 4.796l-.105.984h3.281l-2.755 26.611-.841 4.771c.105 0 .231.025.336.025 4.606-.197 7.55-4.452 8.203-10.625l2.145-20.782h1.535c1.514 0 3.281-1.77 3.597-4.722l.147-1.058zm25.491-.492c-5.658 0-11 4.87-12.641 12.519-1.64 7.649.841 16.7 9.17 16.7 8.308 0 13.103-9.42 13.103-17.266 0-7.796-4.522-11.953-9.632-11.953zm2.292 14.216c-.295 3.468-1.599 8.731-5.174 8.731-3.597 0-3.092-6.149-2.734-9.076.378-3.123 1.871-7.575 5.09-7.575 2.881 0 3.154 4.01 2.818 7.92zm35.291-5.435s-2.84 10.427-3.071 11.288c-.083-.885-2.166-19.601-2.166-19.601-4.837 0-7.424 4.033-8.791 8.288 0 0-3.449 10.452-3.744 11.338-.021-.812-.526-11.215-.526-11.215-.294-5.214-4.374-8.387-7.676-8.387l3.975 28.358c5.069-.025 7.803-4.034 9.232-8.289 0 0 3.05-9.222 3.156-9.64.021.393 2.186 17.929 2.186 17.929 5.09 0 7.825-3.764 9.297-7.87L170 12.813c-5.006 0-7.656 4.008-9.002 8.288zM102.551.172l-4.123 38.884-.84 4.796c.104 0 .23.025.336.025 4.437-.074 7.592-4.625 8.181-10.355l2.376-22.307c.716-6.813-2.755-11.043-5.93-11.043z" fill="#fff"/></svg>