<?xml version="1.0" encoding="utf-8"?><svg width="136" height="50" fill="none" xmlns="http://www.w3.org/2000/svg" viewBox="0 0 136 50"><g opacity=".5" fill="#fff"><path d="M17.56 38.78C8.02 38.78 0 30.08 0 19.39 0 8.703 8.02.003 17.56.003c4.433-.079 8.709 1.847 11.86 5.342l-3.357 3.762c-2.29-2.464-5.354-3.815-8.528-3.762-6.85.15-12.335 6.415-12.335 14.093 0 7.677 5.484 13.942 12.335 14.092 4.519 0 7.09-2.03 8.74-3.88 1.352-1.515 2.234-3.686 2.575-6.668H17.607V17.65h15.867c.18 1.091.264 2.2.254 3.31 0 3.971-.96 8.888-4.096 12.392-3.036 3.536-6.921 5.428-12.073 5.428zM57.537 26.29c.004 5.055-2.71 9.614-6.877 11.551-4.167 1.938-8.965.871-12.156-2.701-3.192-3.573-4.148-8.947-2.422-13.617 1.725-4.67 5.792-7.716 10.303-7.716 2.97-.048 5.83 1.252 7.93 3.603 2.1 2.351 3.262 5.555 3.222 8.88zm-4.883 0c0-4.492-2.902-7.566-6.269-7.566s-6.268 3.074-6.268 7.567c0 4.492 2.901 7.566 6.268 7.566s6.27-3.117 6.27-7.566zM82.032 26.29c.017 5.074-2.697 9.658-6.875 11.613s-8.996.895-12.204-2.686c-3.208-3.58-4.173-8.974-2.444-13.662 1.729-4.69 5.81-7.748 10.338-7.748 2.971-.046 5.834 1.253 7.94 3.602 2.105 2.35 3.275 5.552 3.245 8.882zm-4.897 0c0-4.492-2.912-7.566-6.288-7.566-3.377 0-6.288 3.074-6.288 7.567 0 4.492 2.911 7.566 6.288 7.566 3.376 0 6.288-3.117 6.288-7.566zM105.381 14.565v22.43c0 9.222-4.854 13.005-10.595 13.005-4.326.024-8.233-2.895-9.876-7.378l4.264-1.989c.758 2.032 2.619 4.444 5.612 4.444 3.674 0 5.952-2.552 5.952-7.33V35.92h-.168c-1.488 1.866-3.633 2.904-5.866 2.838-5.573 0-10.667-5.438-10.667-12.435 0-6.997 5.094-12.532 10.667-12.532 2.222-.06 4.36.954 5.866 2.784h.168v-2.01h4.643zm-4.317 11.774c0-4.396-2.619-7.615-5.952-7.615-3.334 0-6.207 3.225-6.207 7.615 0 4.39 2.83 7.523 6.207 7.523 3.376 0 5.962-3.17 5.962-7.523h-.01zM113.251 1.48v36.542h-4.868V1.48h4.868zM131.99 30.407l3.799 2.837c-2.067 3.478-5.557 5.558-9.286 5.535-6.331 0-11.06-5.486-11.06-12.483 0-7.427 4.767-12.483 10.509-12.483 5.741 0 8.633 5.153 9.54 7.942l.508 1.419-14.897 6.905c1.141 2.504 2.911 3.762 5.4 3.762 2.49 0 4.226-1.354 5.487-3.434zm-11.693-4.492l9.962-4.633c-.547-1.558-2.197-2.649-4.135-2.649-1.639.084-3.178.903-4.273 2.273-1.094 1.37-1.651 3.174-1.545 5.009h-.009z"/></g></svg>