<?xml version="1.0" encoding="utf-8"?><svg viewBox="0 0 170 50" xmlns="http://www.w3.org/2000/svg" xmlns:xlink="http://www.w3.org/1999/xlink"><style>:root>svg{display:none}:root>svg:target{display:block}</style><svg fill="none" viewBox="0 0 32 32" id="icon-accordion" xmlns="http://www.w3.org/2000/svg"><rect width="32" height="32" rx="5" fill="#7D9B8F" fill-opacity=".3"/><path d="M9 16.196l4.003 3.803c.295.28.758.28 1.053 0L23 11.5" stroke="#7D9B8F" stroke-width="3" stroke-linecap="round"/></svg><svg fill="none" viewBox="0 0 24 24" id="icon-address" xmlns="http://www.w3.org/2000/svg"><path d="M12 12.197c1.375 0 2.5-1.098 2.5-2.44 0-1.341-1.125-2.439-2.5-2.439s-2.5 1.098-2.5 2.44c0 1.341 1.125 2.439 2.5 2.439zM12 0c5.25 0 10 3.927 10 10.001 0 3.879-3.063 8.44-9.175 13.697a1.295 1.295 0 01-1.662 0C5.063 18.441 2 13.88 2 10.001 2 3.927 6.75 0 12 0z" fill="#7D9B8F"/></svg><svg fill="none" viewBox="0 0 32 32" id="icon-arrow-next" xmlns="http://www.w3.org/2000/svg"><rect width="32" height="32" rx="5" fill="#7D9B8F" fill-opacity=".3"/><path d="M9 15a1 1 0 100 2v-2zm14.707 1.707a1 1 0 000-1.414l-6.364-6.364a1 1 0 00-1.414 1.414L21.586 16l-5.657 5.657a1 1 0 001.414 1.414l6.364-6.364zM9 17h14v-2H9v2z" fill="#7D9B8F"/></svg><svg fill="none" viewBox="0 0 32 32" id="icon-arrow-prev" xmlns="http://www.w3.org/2000/svg"><rect width="32" height="32" rx="5" transform="matrix(-1 0 0 1 32 0)" fill="#7D9B8F" fill-opacity=".3"/><path d="M23 15a1 1 0 110 2v-2zM8.293 16.707a1 1 0 010-1.414l6.364-6.364a1 1 0 011.414 1.414L10.414 16l5.657 5.657a1 1 0 01-1.414 1.414l-6.364-6.364zM23 17H9v-2h14v2z" fill="#7D9B8F"/></svg><svg fill="none" viewBox="0 0 38 23" id="icon-arrow-right" xmlns="http://www.w3.org/2000/svg"><path d="M37.06 12.56a1.5 1.5 0 000-2.12L27.516.892a1.5 1.5 0 10-2.122 2.122L33.88 11.5l-8.486 8.485a1.5 1.5 0 102.122 2.122l9.546-9.546zM.5 13H36v-3H.5v3z" fill="#000"/></svg><svg fill="none" viewBox="0 0 14 14" id="icon-card-1" xmlns="http://www.w3.org/2000/svg"><path d="M13 4.599V1.17m0 0H9.57m3.429 0L6.143 8.027m0-3.428v3.428m0 0H9.57M7.857 1.17H2.714A1.714 1.714 0 001 2.884v8.572a1.714 1.714 0 001.714 1.714h8.572A1.714 1.714 0 0013 11.456V6.313" stroke="#000" stroke-width="1.103" stroke-linecap="round" stroke-linejoin="round"/></svg><svg fill="none" viewBox="0 0 12 12" id="icon-card-2" xmlns="http://www.w3.org/2000/svg"><path d="M8.625.92a1.875 1.875 0 011.871 1.752l.004.123v1.912a1.876 1.876 0 011.495 1.71l.005.128v4.5a.375.375 0 01-.744.067l-.006-.067V9.17H.75v1.875a.375.375 0 01-.744.067L0 11.045v-4.5a1.875 1.875 0 011.5-1.838V2.795A1.875 1.875 0 013.252.923L3.375.92h5.25zm1.5 4.5h-8.25a1.125 1.125 0 00-1.12 1.016l-.005.109V8.42h10.5V6.545a1.125 1.125 0 00-1.016-1.12l-.109-.005zm-1.5-3.75h-5.25a1.125 1.125 0 00-1.12 1.017l-.005.108V4.67H3v-.375a.375.375 0 01.375-.375H5.25a.375.375 0 01.375.375v.375h.75v-.375a.375.375 0 01.375-.375h1.875A.375.375 0 019 4.295v.375h.75V2.795a1.125 1.125 0 00-1.016-1.12l-.109-.005z" fill="#000"/></svg><svg fill="none" viewBox="0 0 12 13" id="icon-card-3" xmlns="http://www.w3.org/2000/svg"><path d="M11.2 6.785H1.6v-4.5a1.282 1.282 0 01.378-.912l.01-.01a1.292 1.292 0 011.465-.254 1.978 1.978 0 00.294 2.416l.274.273-.504.504.566.566.504-.504 2.792-2.792.504-.504-.566-.566-.504.504L6.54.732A1.977 1.977 0 004.016.508a2.09 2.09 0 00-2.594.29l-.01.01A2.076 2.076 0 00.8 2.284v4.5H0v.8h.8v.768c0 .064.01.128.03.19l.745 2.232a.6.6 0 00.57.41h.322l-.292 1h.833l.292-1h5.202l.3 1h.835l-.3-1h.519a.598.598 0 00.569-.41l.744-2.233a.6.6 0 00.031-.19v-.767h.8v-.8h-.8zM4.313 1.298a1.176 1.176 0 011.66 0l.274.274-1.66 1.66-.274-.273a1.176 1.176 0 010-1.661zM10.4 8.32l-.688 2.065H2.288L1.6 8.32v-.735h8.8v.735z" fill="#000"/></svg><svg fill="none" viewBox="0 0 28 26" id="icon-close" xmlns="http://www.w3.org/2000/svg"><path d="M6.953 19.364L20.25 7.232m.653 12.132L7.606 7.232" stroke="#7D9B8F" stroke-width="3" stroke-linecap="round"/></svg><svg fill="none" viewBox="0 0 25 24" id="icon-email" xmlns="http://www.w3.org/2000/svg"><path d="M22.404 1h-19.2c-1.32 0-2.4 1.237-2.4 2.75v16.5c0 1.512 1.08 2.75 2.4 2.75h19.2c1.32 0 2.4-1.238 2.4-2.75V3.75c0-1.513-1.08-2.75-2.4-2.75zm-.48 5.844l-7.848 5.623a2.125 2.125 0 01-2.544 0L3.684 6.844c-.3-.22-.48-.591-.48-.99 0-.921.876-1.471 1.56-.99l8.04 5.761 8.04-5.761c.684-.481 1.56.069 1.56.99 0 .399-.18.77-.48.99z" fill="#7D9B8F"/></svg><svg fill="none" viewBox="0 0 40 40" id="icon-location" xmlns="http://www.w3.org/2000/svg"><path d="M20 36a56.644 56.644 0 01-7-6.276c-3.2-3.397-7-8.455-7-13.276-.001-2.462.819-4.868 2.357-6.916 1.539-2.047 3.726-3.643 6.285-4.585a15.635 15.635 0 018.092-.707c2.717.48 5.212 1.667 7.17 3.408a12.38 12.38 0 013.04 4.036A11.176 11.176 0 0134 16.448c0 4.82-3.8 9.88-7 13.276A56.636 56.636 0 0120 36zm0-24.884c-1.591 0-3.117.562-4.243 1.562-1.125 1-1.757 2.356-1.757 3.77 0 1.415.632 2.77 1.757 3.77 1.126 1 2.652 1.563 4.243 1.563 1.591 0 3.117-.562 4.243-1.562 1.125-1 1.757-2.357 1.757-3.77 0-1.415-.632-2.771-1.757-3.771-1.126-1-2.652-1.562-4.243-1.562z" fill="#7D9B8F"/></svg><svg fill="none" viewBox="0 0 24 24" id="icon-phone" xmlns="http://www.w3.org/2000/svg"><path d="M21.648 16.366l-3.393-.387a2.66 2.66 0 00-2.191.762l-2.458 2.458A20.1 20.1 0 014.8 10.394l2.472-2.471a2.66 2.66 0 00.761-2.191l-.387-3.367A2.674 2.674 0 004.988 0H2.677C1.167 0-.089 1.256.005 2.766c.708 11.41 9.833 20.521 21.23 21.23 1.509.093 2.765-1.163 2.765-2.673v-2.311c.013-1.35-1.002-2.485-2.352-2.646z" fill="#7D9B8F"/></svg><svg fill="none" viewBox="0 0 24 22" id="icon-plus" xmlns="http://www.w3.org/2000/svg"><path d="M2.064 11h19.728m-9.864 9V2" stroke="#7D9B8F" stroke-width="3" stroke-linecap="round"/></svg><svg fill="none" viewBox="0 0 40 40" id="icon-quote" xmlns="http://www.w3.org/2000/svg"><path d="M6.152 10.487c2.338-2.535 5.876-3.82 10.515-3.82h1.666v4.698l-1.34.268c-2.283.457-3.871 1.355-4.721 2.674a4.837 4.837 0 00-.73 2.36h5.125a1.667 1.667 0 011.666 1.666V30A3.337 3.337 0 0115 33.333H5a1.667 1.667 0 01-1.667-1.666v-8.334l.005-4.865c-.015-.185-.331-4.568 2.814-7.981zm27.181 22.846h-10a1.666 1.666 0 01-1.666-1.666v-8.334l.005-4.865c-.015-.185-.332-4.568 2.813-7.981 2.338-2.535 5.877-3.82 10.515-3.82h1.667v4.698l-1.34.268c-2.284.457-3.872 1.355-4.722 2.674a4.836 4.836 0 00-.73 2.36H35a1.667 1.667 0 011.667 1.666V30a3.337 3.337 0 01-3.334 3.333z" fill="#fff"/></svg><svg fill="none" viewBox="0 0 164 17" id="logo" xmlns="http://www.w3.org/2000/svg"><path d="M11.386 1.1h3.564v15.4h-3.564V1.1zM4.39 16.5H.826V1.1H4.39v15.4zm7.26-6.314H4.126V7.172h7.524v3.014zM22.422 16.5v-6.292l.814 2.156L16.46 1.1h3.784l5.192 8.646h-2.178L28.472 1.1h3.498l-6.776 11.264.792-2.156V16.5h-3.564zm10.91 0V1.1h6.666c1.379 0 2.567.227 3.564.682.997.44 1.767 1.078 2.31 1.914.542.836.814 1.833.814 2.992 0 1.144-.272 2.134-.814 2.97-.543.836-1.313 1.481-2.31 1.936-.997.44-2.185.66-3.564.66h-4.686l1.584-1.606V16.5h-3.564zm3.564-5.456L35.312 9.35H39.8c1.1 0 1.921-.235 2.464-.704.542-.47.814-1.122.814-1.958 0-.85-.272-1.51-.814-1.98-.543-.47-1.364-.704-2.464-.704h-4.488l1.584-1.694v8.734zm15.612-3.74h7.414v2.772h-7.414V7.304zm.264 6.336h8.382v2.86H49.23V1.1h11.638v2.86h-8.096v9.68zM63.99 16.5V1.1h6.666c1.379 0 2.567.227 3.564.682.997.44 1.767 1.078 2.31 1.914.543.836.814 1.833.814 2.992 0 1.144-.271 2.134-.814 2.97-.543.821-1.313 1.452-2.31 1.892-.997.44-2.185.66-3.564.66H65.97l1.584-1.562V16.5H63.99zm9.79 0l-3.85-5.588h3.806L77.63 16.5h-3.85zm-6.226-5.456L65.97 9.372h4.488c1.1 0 1.921-.235 2.464-.704.543-.484.814-1.144.814-1.98 0-.85-.271-1.51-.814-1.98-.543-.47-1.364-.704-2.464-.704H65.97l1.584-1.694v8.734zm15.892-3.74h7.414v2.772h-7.414V7.304zm.264 6.336h8.382v2.86H80.168V1.1h11.638v2.86H83.71v9.68zm16.278 3.124a12.83 12.83 0 01-3.542-.484c-1.13-.337-2.04-.77-2.728-1.298l1.21-2.684c.66.47 1.437.858 2.332 1.166a8.91 8.91 0 002.75.44c.704 0 1.268-.066 1.694-.198.44-.147.762-.345.968-.594.205-.25.308-.535.308-.858 0-.41-.162-.733-.484-.968-.323-.25-.748-.447-1.276-.594a19.264 19.264 0 00-1.76-.44 24.972 24.972 0 01-1.914-.528 8.167 8.167 0 01-1.738-.792 3.995 3.995 0 01-1.298-1.276c-.323-.528-.484-1.203-.484-2.024 0-.88.234-1.68.704-2.398.484-.733 1.202-1.313 2.156-1.738.968-.44 2.178-.66 3.63-.66.968 0 1.921.117 2.86.352.938.22 1.767.557 2.486 1.012l-1.1 2.706a9.019 9.019 0 00-2.156-.902 7.67 7.67 0 00-2.112-.308c-.69 0-1.254.08-1.694.242-.44.161-.756.374-.946.638-.191.25-.286.543-.286.88 0 .396.16.719.484.968.322.235.748.425 1.276.572.528.147 1.107.293 1.738.44.645.147 1.283.315 1.914.506.645.19 1.232.447 1.76.77s.953.748 1.276 1.276c.337.528.506 1.195.506 2.002 0 .865-.242 1.657-.726 2.376-.484.719-1.21 1.298-2.178 1.738-.954.44-2.164.66-3.63.66zm11.944-.264V4.004h-4.928V1.1h13.42v2.904h-4.928V16.5h-3.564zm7.612 0l6.864-15.4h3.52l6.886 15.4h-3.74l-5.632-13.596h1.408L123.196 16.5h-3.652zm3.432-3.3l.946-2.706h7.92l.968 2.706h-9.834zm17.853 3.3V4.004h-4.928V1.1h13.42v2.904h-4.928V16.5h-3.564zm13.687-9.196h7.414v2.772h-7.414V7.304zm.264 6.336h8.382v2.86h-11.924V1.1h11.638v2.86h-8.096v9.68z" fill="#fff"/></svg><svg fill="none" viewBox="0 0 50 50" id="partner-logo-1" xmlns="http://www.w3.org/2000/svg"><path opacity=".5" d="M19.026 10.787l.007.003a1.357 1.357 0 011.326-1.068h18.713c.024 0 .048-.01.071-.008C38.745 3.076 33.176 0 28.263 0H9.55C8.89 0 8.366.465 8.223 1.08l-.007-.004L.036 38.63l.018.002c-.02.088-.054.173-.054.269 0 .768.62 1.376 1.389 1.376H12.6l6.426-29.489z" fill="#fff"/><path opacity=".3" d="M39.144 9.714a14.79 14.79 0 01-.318 4.003c-1.78 8.326-8.212 12.66-16.162 12.66h-5.99c-.724 0-1.066.424-1.223.75l-2.417 11.179-.424 1.984h-.008l-1.755 8.05.019.002c-.02.089-.055.173-.055.27 0 .767.621 1.388 1.39 1.388h10.185l.018-.014c.656-.01 1.177-.478 1.313-1.094l.025-.021 2.517-11.689s.175-1.115 1.347-1.115h5.804c7.95 0 14.447-4.314 16.228-12.642 2.003-9.389-4.695-13.676-10.494-13.711z" fill="#fff"/><path opacity=".5" d="M20.36 9.722c-.66 0-1.184.453-1.327 1.068l-.007-.003-3.577 16.34c.157-.324.498-.75 1.222-.75h5.883c7.95 0 14.49-4.333 16.27-12.66.312-1.462.391-2.785.318-4.002-.023-.003-.048.007-.07.007H20.36z" fill="#fff"/></svg><svg fill="none" viewBox="0 0 170 50" id="partner-logo-2" xmlns="http://www.w3.org/2000/svg"><path opacity=".5" d="M54.893 19.553c0-3.567-2.966-7.354-8.097-7.354-5.763 0-12.093 4.943-13.061 14.805-.989 9.961 4.311 14.388 9.654 14.388 5.342 0 8.139-2.434 11-5.68-2.462-3.617-5.637-1.944-6.247-1.575-.673.393-1.536.935-3.302.935-2.062 0-4.165-1.083-4.165-5.583 13.209-1.525 14.218-6.37 14.218-9.936zm-6.541.59c-.084 1.107-.463 3-7.15 4.058 1.409-5.854 4.1-6.296 5.341-6.296 1.157 0 1.893 1.057 1.809 2.238zm-22.378.959s-2.839 10.428-3.07 11.289c-.084-.886-2.167-19.602-2.167-19.602-4.837 0-7.424 4.033-8.79 8.289 0 0-3.45 10.452-3.745 11.337-.02-.811-.525-11.214-.525-11.214-.295-5.215-4.375-8.387-7.677-8.387L3.996 41.17c5.069-.024 7.803-4.033 9.233-8.288 0 0 3.05-9.223 3.176-9.641.02.393 2.187 17.929 2.187 17.929 5.09 0 7.824-3.763 9.296-7.87l7.13-20.487c-5.027 0-7.677 4.008-9.044 8.288zm47.595-8.953c-3.134 0-5.531 1.993-7.55 4.92v-.025L67.828 0c-4.165 0-7.55 4.23-8.203 10.526L56.47 40.95c2.398 0 4.943-.812 6.31-2.878 1.22 1.844 3.05 3.32 5.762 3.32 7.025 0 11.841-9.542 11.841-18.495-.041-8.165-3.428-10.747-6.814-10.747zm-.652 14.635c-.736 4.992-3.113 8.386-5.405 8.386-2.314 0-3.302-1.205-3.302-1.205.442-4.378.715-7.059 1.556-9.37.842-2.312 2.84-6.002 4.922-6.002 2.04 0 2.965 3.173 2.23 8.19zm25.007-13.971h-4.9l.02-.295c.337-3.738 1.094-5.706 3.597-6.025 1.703-.197 2.46-1.23 2.65-2.361.147-.886.61-3.96.61-3.96C90.058.098 86.967 5.066 86.167 12.64l-.021.172h-.105c-1.599 0-3.365 2.115-3.66 4.796l-.105.984h3.281l-2.755 26.611-.841 4.771c.105 0 .231.025.336.025 4.606-.197 7.55-4.452 8.203-10.625l2.145-20.782h1.535c1.514 0 3.281-1.77 3.597-4.722l.147-1.058zm25.491-.492c-5.658 0-11 4.87-12.641 12.519-1.64 7.649.841 16.7 9.17 16.7 8.308 0 13.103-9.42 13.103-17.266 0-7.796-4.522-11.953-9.632-11.953zm2.292 14.216c-.295 3.468-1.599 8.731-5.174 8.731-3.597 0-3.092-6.149-2.734-9.076.378-3.123 1.871-7.575 5.09-7.575 2.881 0 3.154 4.01 2.818 7.92zm35.291-5.435s-2.84 10.427-3.071 11.288c-.083-.885-2.166-19.601-2.166-19.601-4.837 0-7.424 4.033-8.791 8.288 0 0-3.449 10.452-3.744 11.338-.021-.812-.526-11.215-.526-11.215-.294-5.214-4.374-8.387-7.676-8.387l3.975 28.358c5.069-.025 7.803-4.034 9.232-8.289 0 0 3.05-9.222 3.156-9.64.021.393 2.186 17.929 2.186 17.929 5.09 0 7.825-3.764 9.297-7.87L170 12.813c-5.006 0-7.656 4.008-9.002 8.288zM102.551.172l-4.123 38.884-.84 4.796c.104 0 .23.025.336.025 4.437-.074 7.592-4.625 8.181-10.355l2.376-22.307c.716-6.813-2.755-11.043-5.93-11.043z" fill="#fff"/></svg><svg fill="none" viewBox="0 0 136 50" id="partner-logo-3" xmlns="http://www.w3.org/2000/svg"><g opacity=".5" fill="#fff"><path d="M17.56 38.78C8.02 38.78 0 30.08 0 19.39 0 8.703 8.02.003 17.56.003c4.433-.079 8.709 1.847 11.86 5.342l-3.357 3.762c-2.29-2.464-5.354-3.815-8.528-3.762-6.85.15-12.335 6.415-12.335 14.093 0 7.677 5.484 13.942 12.335 14.092 4.519 0 7.09-2.03 8.74-3.88 1.352-1.515 2.234-3.686 2.575-6.668H17.607V17.65h15.867c.18 1.091.264 2.2.254 3.31 0 3.971-.96 8.888-4.096 12.392-3.036 3.536-6.921 5.428-12.073 5.428zM57.537 26.29c.004 5.055-2.71 9.614-6.877 11.551-4.167 1.938-8.965.871-12.156-2.701-3.192-3.573-4.148-8.947-2.422-13.617 1.725-4.67 5.792-7.716 10.303-7.716 2.97-.048 5.83 1.252 7.93 3.603 2.1 2.351 3.262 5.555 3.222 8.88zm-4.883 0c0-4.492-2.902-7.566-6.269-7.566s-6.268 3.074-6.268 7.567c0 4.492 2.901 7.566 6.268 7.566s6.27-3.117 6.27-7.566zM82.032 26.29c.017 5.074-2.697 9.658-6.875 11.613s-8.996.895-12.204-2.686c-3.208-3.58-4.173-8.974-2.444-13.662 1.729-4.69 5.81-7.748 10.338-7.748 2.971-.046 5.834 1.253 7.94 3.602 2.105 2.35 3.275 5.552 3.245 8.882zm-4.897 0c0-4.492-2.912-7.566-6.288-7.566-3.377 0-6.288 3.074-6.288 7.567 0 4.492 2.911 7.566 6.288 7.566 3.376 0 6.288-3.117 6.288-7.566zM105.381 14.565v22.43c0 9.222-4.854 13.005-10.595 13.005-4.326.024-8.233-2.895-9.876-7.378l4.264-1.989c.758 2.032 2.619 4.444 5.612 4.444 3.674 0 5.952-2.552 5.952-7.33V35.92h-.168c-1.488 1.866-3.633 2.904-5.866 2.838-5.573 0-10.667-5.438-10.667-12.435 0-6.997 5.094-12.532 10.667-12.532 2.222-.06 4.36.954 5.866 2.784h.168v-2.01h4.643zm-4.317 11.774c0-4.396-2.619-7.615-5.952-7.615-3.334 0-6.207 3.225-6.207 7.615 0 4.39 2.83 7.523 6.207 7.523 3.376 0 5.962-3.17 5.962-7.523h-.01zM113.251 1.48v36.542h-4.868V1.48h4.868zM131.99 30.407l3.799 2.837c-2.067 3.478-5.557 5.558-9.286 5.535-6.331 0-11.06-5.486-11.06-12.483 0-7.427 4.767-12.483 10.509-12.483 5.741 0 8.633 5.153 9.54 7.942l.508 1.419-14.897 6.905c1.141 2.504 2.911 3.762 5.4 3.762 2.49 0 4.226-1.354 5.487-3.434zm-11.693-4.492l9.962-4.633c-.547-1.558-2.197-2.649-4.135-2.649-1.639.084-3.178.903-4.273 2.273-1.094 1.37-1.651 3.174-1.545 5.009h-.009z"/></g></svg><svg fill="none" viewBox="0 0 166 50" id="partner-logo-4" xmlns="http://www.w3.org/2000/svg"><path opacity=".5" d="M24.285 24.152c-.941-1.29-1.937-2.353-1.937-4.76v-7.988c0-3.403.242-6.509-2.26-8.849C18.124.672 14.856 0 12.354 0 7.47 0 2.009 1.829.866 7.867c-.121.632.35.968.767 1.076l4.977.538c.47-.027.807-.484.901-.942.43-2.084 2.166-3.093 4.13-3.093 1.062 0 2.26.404 2.878 1.332.727 1.062.633 2.501.633 3.725v.672c-2.987.323-6.874.551-9.672 1.775a8.73 8.73 0 00-5.475 8.392c0 5.338 3.363 8.001 7.694 8.001 3.66 0 5.65-.86 8.475-3.725.928 1.345 1.224 2.017 2.932 3.43a1.077 1.077 0 001.211-.135l3.955-3.389c.43-.35.35-.901.013-1.372zm-9.147-7.76c0 2.018.054 3.672-.941 5.46-.821 1.44-2.126 2.327-3.565 2.327-1.978 0-3.121-1.506-3.121-3.725 0-4.37 3.914-5.164 7.64-5.164l-.013 1.103zm76.5 7.76c-.941-1.29-1.937-2.353-1.937-4.76v-7.988c0-3.403.243-6.509-2.26-8.849C85.465.672 82.196 0 79.708 0 74.81 0 69.349 1.829 68.219 7.867c-.135.632.35.982.767 1.076l4.977.538c.457-.027.807-.484.888-.942.43-2.084 2.179-3.093 4.13-3.093 1.062 0 2.26.404 2.878 1.332.726 1.062.632 2.501.632 3.725v.672c-2.973.336-6.874.551-9.658 1.775a8.716 8.716 0 00-5.488 8.392c0 5.338 3.362 8.001 7.694 8.001 3.659 0 5.65-.86 8.475-3.725.928 1.345 1.237 2.017 2.946 3.43a1.063 1.063 0 001.21-.135v.013a230.909 230.909 0 013.955-3.402c.404-.35.363-.901.013-1.372zm-10.102-2.3c-.82 1.44-2.125 2.327-3.564 2.327-1.978 0-3.121-1.506-3.121-3.725 0-4.37 3.928-5.164 7.64-5.164v1.116c0 2.004.054 3.658-.955 5.447zm69.411 7.128h-5.125a.969.969 0 01-.914-.941l-.014-26.358a.97.97 0 01.982-.874h4.762a.97.97 0 01.915.74V5.58h.107c1.44-3.604 3.444-5.325 6.995-5.325a6.726 6.726 0 016 3.093C166 5.473 166 9.01 166 11.565V28.16a.982.982 0 01-.995.82h-5.152a.971.971 0 01-.915-.82V13.838c0-2.878.336-7.087-3.202-7.087a3.334 3.334 0 00-2.973 2.098 11.72 11.72 0 00-.82 4.989v14.2a.984.984 0 01-.996.941zM129.304.256c7.627 0 11.743 6.549 11.743 14.86 0 8.041-4.547 14.429-11.743 14.429-7.48 0-11.569-6.55-11.569-14.699 0-8.203 4.13-14.59 11.569-14.59zm.053 5.379c-3.793 0-4.035 5.164-4.035 8.378 0 3.214-.054 10.086 3.982 10.086 3.981 0 4.17-5.541 4.17-8.916a24.35 24.35 0 00-.767-6.993c-.579-1.83-1.722-2.555-3.363-2.555h.013zM34.361 28.98h-5.139a.968.968 0 01-.928-.86V1.761c0-.538.457-.942.995-.942h4.79a.972.972 0 01.94.874v3.443h.095C36.352 1.802 38.706.256 41.867.256c3.215 0 5.233 1.546 6.672 4.881A7.29 7.29 0 0155.628.256c2.152 0 4.506.887 5.946 2.877 1.64 2.22 1.305 5.447 1.305 8.27V28.04c0 .524-.458.941-.996.941h-5.139a.956.956 0 01-.914-.941V14.053c0-1.103.094-3.873-.148-4.922-.39-1.775-1.534-2.286-3.027-2.286a3.418 3.418 0 00-3.067 2.165c-.538 1.345-.47 3.55-.47 5.056V28.04c0 .538-.445.941-.996.941h-5.139a.969.969 0 01-.914-.941V14.053c0-2.932.47-7.262-3.175-7.262-3.686 0-3.551 4.223-3.551 7.262v13.986a.942.942 0 01-.982.941zM95.957 5.46V1.694a.941.941 0 01.941-.94h16.909c.538 0 .969.376.969.94v3.228c0 .538-.458 1.25-1.265 2.367l-8.744 12.493c3.229-.08 6.673.403 9.632 2.057.659.377.834.942.888 1.48v4.02c0 .538-.606 1.184-1.238.861a19.453 19.453 0 00-17.85.027c-.579.31-1.198-.323-1.198-.874v-3.82c0-.604 0-1.653.633-2.581l10.129-14.537h-8.825a.942.942 0 01-.968-.942l-.013-.013zm11.003 29.06c-1.237-1.573-8.152-.739-11.272-.376-.942.121-1.077-.7-.23-1.304 5.516-3.873 14.569-2.757 15.605-1.453 1.076 1.305-.269 10.369-5.448 14.699-.794.672-1.547.31-1.197-.565 1.17-2.905 3.766-9.413 2.542-11zm-4.022 4.586C93.293 46.22 79.317 50 67.278 50a64.566 64.566 0 01-43.571-16.608c-.901-.807-.094-1.923.995-1.304a87.725 87.725 0 0043.584 11.565c10.694 0 22.438-2.22 33.253-6.805 1.628-.672 3 1.076 1.399 2.26z" fill="#fff"/></svg><svg fill="none" viewBox="0 0 50 50" id="partner-logo-5" xmlns="http://www.w3.org/2000/svg"><path opacity=".5" d="M50 0v50L31.385 0H50zM16.775 39.474H25L28.897 50h8.225L25 17.251l-8.225 22.223zM0 0v50L18.615 0H0z" fill="#fff"/></svg></svg>