<?xml version="1.0" encoding="utf-8"?><svg viewBox="0 0 31 30" xmlns="http://www.w3.org/2000/svg" xmlns:xlink="http://www.w3.org/1999/xlink"><style>:root>svg{display:none}:root>svg:target{display:block}</style><svg viewBox="0 0 26 26" id="assets" xmlns="http://www.w3.org/2000/svg"><g fill="none" fill-rule="evenodd"><path d="M0 0h26v26H0z"/><path fill="#5A81EA" d="M24 6.5h-.5v13a1 1 0 0 1-1 1h-19v.5A1.5 1.5 0 0 0 5 22.5h19a1.5 1.5 0 0 0 1.5-1.5V8A1.5 1.5 0 0 0 24 6.5z"/><path fill="#5A81EA" d="M22.5 18V5A1.5 1.5 0 0 0 21 3.5H2A1.5 1.5 0 0 0 .5 5v13A1.5 1.5 0 0 0 2 19.5h19a1.5 1.5 0 0 0 1.5-1.5zM5 17.5H3a.5.5 0 1 1 0-1h2a.5.5 0 1 1 0 1zm6.5-2c-1.654 0-3-1.794-3-4s1.346-4 3-4 3 1.794 3 4-1.346 4-3 4zm8.5-9h-2a.5.5 0 1 1 0-1h2a.5.5 0 1 1 0 1z"/></g></svg><svg viewBox="0 0 30 30" id="bitcoin-30" xmlns="http://www.w3.org/2000/svg"><g fill="none" fill-rule="evenodd"><path fill="none" d="M0 0h30v30H0z"/><path fill="#F7931A" fill-rule="nonzero" d="M29.551 18.628c-2.004 8.036-10.143 12.927-18.181 10.923C3.336 27.547-1.555 19.408.45 11.373 2.451 3.337 10.591-1.555 18.626.45c8.037 2.003 12.928 10.143 10.924 18.18z"/><path fill="#FFF" fill-rule="nonzero" d="M21.612 12.863c.298-1.996-1.222-3.069-3.3-3.785l.674-2.703-1.646-.41-.656 2.632a67.24 67.24 0 0 0-1.319-.31l.66-2.65-1.644-.41-.675 2.703c-.358-.082-.71-.162-1.05-.247v-.009l-2.269-.566-.438 1.757s1.221.28 1.196.298c.666.166.786.607.766.957l-.767 3.08c.046.012.105.028.17.055l-.173-.043-1.076 4.314c-.082.203-.289.507-.755.391.017.024-1.196-.298-1.196-.298l-.817 1.883 2.142.534c.398.1.789.204 1.173.303l-.68 2.735 1.643.41.675-2.706c.45.122.885.235 1.312.34l-.672 2.694 1.645.41.682-2.73c2.807.531 4.917.317 5.805-2.221.716-2.044-.035-3.223-1.512-3.992 1.075-.248 1.886-.955 2.102-2.416zm-3.76 5.273c-.51 2.044-3.95.94-5.067.662l.904-3.623c1.116.278 4.694.83 4.162 2.961zm.508-5.302c-.464 1.859-3.328.914-4.257.682l.819-3.285c.929.231 3.921.664 3.438 2.603z"/></g></svg><svg viewBox="0 0 18 18" id="deposit" xmlns="http://www.w3.org/2000/svg"><g fill="none" fill-rule="evenodd"><path d="M0 18h18V0H0z"/><g fill="#8C8C8C" fill-rule="nonzero"><path d="M15.409 3.021l.671.741L9 10.181 1.955 3.799l.671-.741L9 8.83z"/><path d="M15.409 7.252l.671.741L9 14.412 1.955 8.03l.671-.742L9 13.062z"/></g></g></svg><svg viewBox="0 0 26 26" id="dex" xmlns="http://www.w3.org/2000/svg"><g fill="none" fill-rule="evenodd"><path d="M0 0h26v26H0z"/><path fill="#FFF" fill-rule="nonzero" d="M2.9 8.771V1.478a.48.48 0 0 1 .96 0v7.293h1.599a1.2 1.2 0 0 1 1.2 1.2v8.918a1.2 1.2 0 0 1-1.2 1.2H3.86v4.433a.48.48 0 0 1-.96 0v-4.433H1.3a1.2 1.2 0 0 1-1.2-1.2V9.971a1.2 1.2 0 0 1 1.2-1.2h1.6zm-1.6 1a.2.2 0 0 0-.2.2v8.918c0 .11.09.2.2.2h4.159a.2.2 0 0 0 .2-.2V9.971a.2.2 0 0 0-.2-.2H1.3zM12.4 6.41V1.478a.48.48 0 0 1 .96 0V6.41h1.607a.7.7 0 0 1 .7.7v6.088a.7.7 0 0 1-.7.7H13.36v3.972a.48.48 0 0 1-.96 0v-3.972h-1.591a.7.7 0 0 1-.7-.7V7.11a.7.7 0 0 1 .7-.7H12.4zm-1.291 1v5.488h3.558V7.41H11.11zm9.491-.002v9.27h3.559v-9.27H20.6zm1.3-1v-4.93a.48.48 0 0 1 .96 0v4.93h1.599a.7.7 0 0 1 .7.7v9.87a.7.7 0 0 1-.7.7H22.86v6.844a.48.48 0 0 1-.96 0v-6.844h-1.6a.7.7 0 0 1-.7-.7v-9.87a.7.7 0 0 1 .7-.7h1.6z"/></g></svg><svg viewBox="0 0 30 30" id="ethereum-30" xmlns="http://www.w3.org/2000/svg"><g fill="none" fill-rule="evenodd"><path fill="none" d="M0 0h30v30H0z"/><g fill-rule="nonzero"><path fill="#343434" d="M14.706 0l-.201.683v19.833l.2.2 9.207-5.441z"/><path fill="#8C8C8C" d="M14.706 0L5.5 15.275l9.206 5.441v-9.625z"/><path fill="#3C3C3B" d="M14.706 22.46l-.113.138v7.064l.113.331 9.211-12.972z"/><path fill="#8C8C8C" d="M14.706 29.993V22.46L5.5 17.021z"/><path fill="#141414" d="M14.706 20.716l9.206-5.441-9.206-4.184z"/><path fill="#393939" d="M5.5 15.275l9.206 5.441v-9.625z"/></g></g></svg><svg viewBox="0 0 30 30" id="euro-30" xmlns="http://www.w3.org/2000/svg"><g fill="none"><path fill="#029FE4" d="M15 0C6.716 0 0 6.716 0 15c0 8.284 6.716 15 15 15 8.284 0 15-6.716 15-15 0-8.284-6.716-15-15-15z"/><path fill="#FFF" d="M9.134 12.708H7.648a.111.111 0 0 0-.106.08l-.537 1.79a.112.112 0 0 0 .017.099.11.11 0 0 0 .089.045h1.584a7.363 7.363 0 0 0-.023.524c0 .227.017.457.038.687H7.648a.111.111 0 0 0-.106.079l-.537 1.791a.111.111 0 0 0 .106.143h2.085c1.098 2.722 3.788 4.547 6.722 4.547 1.647 0 3.26-.568 4.54-1.6a.11.11 0 0 0 .017-.155l-1.123-1.396a.11.11 0 0 0-.156-.017 5.173 5.173 0 0 1-3.278 1.154 5.236 5.236 0 0 1-4.47-2.533h5.336a.11.11 0 0 0 .104-.073l.657-1.791a.112.112 0 0 0-.013-.102.11.11 0 0 0-.091-.047h-6.708a5.265 5.265 0 0 1-.048-.687c0-.173.014-.349.031-.524h6.068a.11.11 0 0 0 .104-.073l.657-1.791a.11.11 0 0 0-.104-.15h-6.087a5.21 5.21 0 0 1 4.564-2.695c1.207 0 2.34.4 3.278 1.154a.11.11 0 0 0 .156-.017l1.123-1.395a.111.111 0 0 0-.017-.157A7.264 7.264 0 0 0 15.918 8a7.271 7.271 0 0 0-6.784 4.708z"/></g></svg><svg viewBox="0 0 26 26" id="exit" xmlns="http://www.w3.org/2000/svg"><g fill="none" fill-rule="evenodd"><path d="M0 0h26v26H0z"/><path fill="#FFF" fill-rule="nonzero" d="M19.246 5.171c2.367 1.982 3.734 4.948 3.734 8.114 0 5.743-4.468 10.4-9.98 10.4-5.512 0-9.98-4.656-9.98-10.4 0-3.166 1.367-6.132 3.733-8.112a.614.614 0 0 0 .089-.84.567.567 0 0 0-.818-.093C3.385 6.448 1.86 9.756 1.86 13.285c0 6.406 4.987 11.6 11.14 11.6 6.152 0 11.14-5.194 11.14-11.6 0-3.529-1.525-6.837-4.165-9.047a.567.567 0 0 0-.818.092.614.614 0 0 0 .089.841z"/><path fill="#FFF" fill-rule="nonzero" d="M12.42 1.48v10.833a.58.58 0 0 0 1.16 0V1.48a.58.58 0 0 0-1.16 0z"/></g></svg><svg viewBox="0 0 26 26" id="leasing" xmlns="http://www.w3.org/2000/svg"><g fill="none" fill-rule="evenodd"><path fill="none" d="M0 0h26v26H0z"/><path fill="#8C8C8C" d="M24.5 11h-23c-.3 0-.5.2-.5.5v7C1 19.9 2.1 21 3.5 21h19c1.4 0 2.5-1.1 2.5-2.5v-7c0-.3-.2-.5-.5-.5zm-20 4h4c.3 0 .5.2.5.5s-.2.5-.5.5h-4c-.3 0-.5-.2-.5-.5s.2-.5.5-.5zm7 3h-7c-.3 0-.5-.2-.5-.5s.2-.5.5-.5h7c.3 0 .5.2.5.5s-.2.5-.5.5zm8.5 0c-.4 0-.7-.1-1-.3-.3.2-.6.3-1 .3-1.1 0-2-.9-2-2s.9-2 2-2c.4 0 .7.1 1 .3.3-.2.6-.3 1-.3 1.1 0 2 .9 2 2s-.9 2-2 2zm2.5-13h-19C2.1 5 1 6.1 1 7.5v1c0 .3.2.5.5.5h23c.3 0 .5-.2.5-.5v-1C25 6.1 23.9 5 22.5 5z"/></g></svg><svg viewBox="0 0 31 30" id="ltc-30" xmlns="http://www.w3.org/2000/svg"><g fill="none"><path fill="#909BA7" d="M15.5 0C7.216 0 .5 6.716.5 15c0 8.284 6.716 15 15 15 8.284 0 15-6.716 15-15 0-8.284-6.716-15-15-15z"/><path fill="#FFF" d="M20.805 21.175H9.96l1.107-4.161-1.567.572.518-1.952 1.569-.573L13.466 8h4.075l-1.437 5.41 1.994-.728.018.047-.504 1.894-2.026.74-.856 3.222h6.77z"/></g></svg><svg viewBox="0 0 26 26" id="portfolio" xmlns="http://www.w3.org/2000/svg"><g fill="none" fill-rule="evenodd"><path d="M0 0h26v26H0z"/><path fill="#8C8C8C" d="M22.68 6.478h-4.84V5.174C17.839 3.974 16.854 3 15.64 3h-5.28c-1.214.001-2.199.974-2.2 2.174v1.304H3.32A1.314 1.314 0 0 0 2 7.783v13.913c0 .72.591 1.303 1.32 1.304h19.36c.729 0 1.32-.584 1.32-1.304V7.783c0-.72-.591-1.304-1.32-1.305zM9.04 5.174c0-.72.591-1.304 1.32-1.304h5.28c.729 0 1.32.584 1.32 1.304v1.304H9.04V5.174zm11 13.478H5.96a.437.437 0 0 1-.44-.435c0-.24.197-.434.44-.434h14.08c.243 0 .44.194.44.434s-.197.435-.44.435zm0-3.478H5.96a.437.437 0 0 1-.44-.435c0-.24.197-.435.44-.435h14.08c.243 0 .44.195.44.435s-.197.435-.44.435zm0-3.478H5.96a.437.437 0 0 1-.44-.435c0-.24.197-.435.44-.435h14.08c.243 0 .44.195.44.435s-.197.435-.44.435z"/></g></svg><svg viewBox="0 0 18 18" id="send" xmlns="http://www.w3.org/2000/svg"><g fill="none" fill-rule="evenodd"><path d="M0 0h18v18H0z"/><g fill="#8C8C8C" fill-rule="nonzero"><path d="M15.409 14.979l.671-.741L9 7.819l-7.045 6.382.671.741L9 9.17z"/><path d="M15.409 10.748l.671-.741L9 3.588 1.955 9.97l.671.742L9 4.938z"/></g></g></svg><svg viewBox="0 0 26 26" id="setting" xmlns="http://www.w3.org/2000/svg"><g fill="none" fill-rule="evenodd"><path d="M0 0h26v26H0z"/><path d="M24.482 13.985l-2.052.588a1.482 1.482 0 0 0-1.011 1 8.764 8.764 0 0 1-.645 1.564 1.48 1.48 0 0 0 .01 1.42l1.03 1.857-1.4 1.4-1.857-1.03a1.48 1.48 0 0 0-1.42-.01c-.5.265-1.023.481-1.564.645a1.482 1.482 0 0 0-1 1.011l-.588 2.052h-1.97l-.588-2.052a1.484 1.484 0 0 0-1-1.012 8.71 8.71 0 0 1-1.564-.644 1.474 1.474 0 0 0-1.42.01l-1.857 1.029-1.4-1.4 1.03-1.856c.245-.44.248-.974.01-1.418a8.775 8.775 0 0 1-.644-1.565 1.482 1.482 0 0 0-1.012-1l-2.052-.59v-1.969l2.052-.588a1.482 1.482 0 0 0 1.011-1c.164-.54.38-1.064.645-1.563a1.48 1.48 0 0 0-.009-1.42l-1.03-1.858 1.4-1.399 1.856 1.03a1.481 1.481 0 0 0 1.42.01 8.747 8.747 0 0 1 1.563-.646 1.483 1.483 0 0 0 1.001-1.011l.588-2.052h1.97l.588 2.052a1.48 1.48 0 0 0 1 1.01c.54.165 1.064.38 1.563.646a1.48 1.48 0 0 0 1.42-.009l1.858-1.03 1.4 1.4-1.03 1.856c-.245.44-.248.974-.01 1.418.264.5.48 1.024.645 1.565a1.48 1.48 0 0 0 1.011 1.001l2.052.588v1.97zM13 17.493a4.493 4.493 0 1 0 0-8.986 4.493 4.493 0 0 0 0 8.986z"/><path fill="#FFF" fill-rule="nonzero" d="M24.757 11.055l-2.053-.588a.488.488 0 0 1-.33-.33 9.75 9.75 0 0 0-.72-1.744.486.486 0 0 1 .002-.466l1.03-1.856a.998.998 0 0 0-.167-1.19l-1.4-1.4a.997.997 0 0 0-1.19-.167l-1.857 1.03a.48.48 0 0 1-.466 0 9.704 9.704 0 0 0-1.743-.718.49.49 0 0 1-.33-.331l-.588-2.052a.998.998 0 0 0-.96-.723h-1.97a.998.998 0 0 0-.96.723l-.588 2.052a.49.49 0 0 1-.33.331 9.718 9.718 0 0 0-1.743.72.48.48 0 0 1-.467 0L6.071 3.312a.997.997 0 0 0-1.19.167l-1.4 1.4a.998.998 0 0 0-.167 1.19l1.03 1.857c.08.145.08.321 0 .467a9.71 9.71 0 0 0-.718 1.741.488.488 0 0 1-.332.331l-2.05.588a.998.998 0 0 0-.724.96v1.97a1 1 0 0 0 .723.96l2.052.588c.16.046.285.17.331.33a9.76 9.76 0 0 0 .72 1.744.486.486 0 0 1-.002.466l-1.03 1.856a.998.998 0 0 0 .167 1.19l1.4 1.4c.314.315.8.383 1.19.167l1.856-1.03a.48.48 0 0 1 .467 0c.556.295 1.14.535 1.742.718a.49.49 0 0 1 .331.332l.589 2.051a.998.998 0 0 0 .96.723h1.969a.998.998 0 0 0 .96-.723l.587-2.052a.488.488 0 0 1 .331-.33 9.737 9.737 0 0 0 1.743-.72.5.5 0 0 1 .234-.059c.082 0 .162.02.233.06l1.856 1.03a.998.998 0 0 0 1.19-.167l1.4-1.4a.998.998 0 0 0 .167-1.19l-1.03-1.857a.486.486 0 0 1 0-.466c.295-.557.535-1.14.718-1.743a.49.49 0 0 1 .331-.331l2.052-.588a.998.998 0 0 0 .723-.96v-1.969a.998.998 0 0 0-.723-.96zm-.275 2.93l-2.052.588a1.482 1.482 0 0 0-1.011 1 8.764 8.764 0 0 1-.645 1.564 1.48 1.48 0 0 0 .01 1.42l1.03 1.857-1.4 1.4-1.857-1.03a1.48 1.48 0 0 0-1.42-.01c-.5.265-1.023.481-1.564.645a1.482 1.482 0 0 0-1 1.011l-.588 2.052h-1.97l-.588-2.052a1.484 1.484 0 0 0-1-1.012 8.71 8.71 0 0 1-1.564-.644 1.474 1.474 0 0 0-1.42.01l-1.857 1.029-1.4-1.4 1.03-1.856c.245-.44.248-.974.01-1.418a8.775 8.775 0 0 1-.644-1.565 1.482 1.482 0 0 0-1.012-1l-2.052-.59v-1.969l2.052-.588a1.482 1.482 0 0 0 1.011-1c.164-.54.38-1.064.645-1.563a1.48 1.48 0 0 0-.009-1.42l-1.03-1.858 1.4-1.399 1.856 1.03a1.481 1.481 0 0 0 1.42.01 8.747 8.747 0 0 1 1.563-.646 1.483 1.483 0 0 0 1.001-1.011l.588-2.052h1.97l.588 2.052a1.48 1.48 0 0 0 1 1.01c.54.165 1.064.38 1.563.646a1.48 1.48 0 0 0 1.42-.009l1.858-1.03 1.4 1.4-1.03 1.856c-.245.44-.248.974-.01 1.418.264.5.48 1.024.645 1.565a1.48 1.48 0 0 0 1.011 1.001l2.052.588v1.97z"/><path fill="#FFF" fill-rule="nonzero" d="M13 7.509A5.491 5.491 0 1 0 18.491 13 5.497 5.497 0 0 0 13 7.509zm0 9.984a4.493 4.493 0 1 1 0-8.986 4.493 4.493 0 0 1 0 8.986z"/></g></svg><svg viewBox="0 0 28 28" id="token" xmlns="http://www.w3.org/2000/svg"><g fill="none" fill-rule="evenodd"><path fill="none" d="M1 1h26v26H1z"/><path fill="#FFF" fill-rule="nonzero" d="M14.417 2.696a.52.52 0 0 0-.736 0L2.698 13.68a.52.52 0 0 0 0 .735L13.68 25.398a.52.52 0 0 0 .736 0L25.4 14.415a.52.52 0 0 0 0-.735L14.417 2.696zm.733-.735l10.984 10.983a1.56 1.56 0 0 1 0 2.206L15.15 26.134a1.56 1.56 0 0 1-2.206 0L1.961 15.15a1.56 1.56 0 0 1 0-2.206L12.944 1.961a1.56 1.56 0 0 1 2.206 0z"/><path fill="#FFF" fill-rule="nonzero" d="M14.415 7.44a.52.52 0 0 0-.735 0l-6.24 6.24a.52.52 0 0 0 0 .735l6.24 6.239a.52.52 0 0 0 .735 0l6.239-6.239a.52.52 0 0 0 0-.735l-6.239-6.24zm.735-.735l6.24 6.24a1.559 1.559 0 0 1 0 2.205l-6.24 6.24a1.56 1.56 0 0 1-2.206 0l-6.239-6.24a1.56 1.56 0 0 1 0-2.206l6.24-6.239a1.56 1.56 0 0 1 2.205 0z"/><path fill="#FFF" fill-rule="nonzero" d="M14.42 11.903a.839.839 0 1 1 0-1.677.839.839 0 0 1 0 1.677zm2.515 2.516a.839.839 0 1 1 0-1.677.839.839 0 0 1 0 1.677zm-2.516 0a.839.839 0 1 1 0-1.677.839.839 0 0 1 0 1.677z"/></g></svg><svg viewBox="0 0 26 26" id="transaction" xmlns="http://www.w3.org/2000/svg"><g fill="none" fill-rule="evenodd"><path fill="none" d="M0 0h26v26H0z"/><path fill="#8C8C8C" d="M2 13c0 6.075 4.925 11 11 11s11-4.925 11-11S19.075 2 13 2A11 11 0 0 0 2 13zm14.08-4.64v8.618l1.889-1.89a.44.44 0 1 1 .622.623l-2.64 2.64a.44.44 0 0 1-.622 0l-2.64-2.64a.44.44 0 0 1 .622-.622l1.889 1.889V8.36a.44.44 0 1 1 .88 0zm-5.409-.711l2.64 2.64a.44.44 0 0 1-.622.622L10.8 9.022v8.618a.44.44 0 1 1-.88 0V9.022l-1.889 1.89a.44.44 0 0 1-.622-.623l2.64-2.64a.44.44 0 0 1 .622 0z"/></g></svg><svg viewBox="0 0 17 17" id="unpin" xmlns="http://www.w3.org/2000/svg"><g fill="none" fill-rule="evenodd"><path d="M0-1h18v18H0z"/><path fill="#424242" fill-rule="nonzero" d="M7.423 5.46l.707.707-.669.67-.754-.755h.095l.621-.622zm.707-.707L9.793 3.09l-.52-.519a.5.5 0 0 1 0-.707L10.729.409a.5.5 0 0 1 .708 0l5.237 5.237a.5.5 0 0 1 0 .707l-1.455 1.455a.5.5 0 0 1-.707 0l-.52-.52-1.662 1.663-.707-.707 2.016-2.016a.5.5 0 0 1 .707 0l.52.52.747-.748-4.53-4.53-.748.747.52.52a.5.5 0 0 1 0 .707L8.838 5.46l-.708-.707zm3.492 4.905L11 10.28v.095l-.754-.754.669-.67.707.707zm-6.33-3.576l1 1H4.015l-.663.664 5.984 5.984.664-.664V10.79l1 1v1.485a.5.5 0 0 1-.146.353L9.69 14.791a.5.5 0 0 1-.707 0L5.99 11.799l-4.286 4.286a.5.5 0 1 1-.708-.707l4.287-4.287L2.291 8.1a.5.5 0 0 1 0-.707l1.164-1.164a.5.5 0 0 1 .353-.146h1.484zm11.256 8.463a.5.5 0 0 1-.708.707L1.698 1.11a.5.5 0 0 1 .707-.707l14.143 14.142z"/></g></svg><svg viewBox="0 0 31 30" id="usd-30" xmlns="http://www.w3.org/2000/svg"><g fill="none"><path fill="#48B04C" d="M15.5 0C7.216 0 .5 6.716.5 15c0 8.284 6.716 15 15 15 8.284 0 15-6.716 15-15 0-8.284-6.716-15-15-15z"/><path fill="#FFF" d="M10.51 18.233v-.076h2.718c0 .83.226 1.435.604 1.812.377.378.906.529 1.586.529.604 0 1.132-.151 1.434-.453.302-.302.453-.755.453-1.284 0-.528-.15-.981-.453-1.283-.302-.302-.83-.605-1.66-.907-1.436-.528-2.568-1.057-3.248-1.736-.68-.68-1.057-1.586-1.057-2.794 0-1.133.378-1.963 1.057-2.719.68-.68 1.661-1.132 2.87-1.208V6h1.51v2.114c1.208.151 2.114.604 2.794 1.36.68.755.981 1.736.981 2.944v.076h-2.794c0-.68-.15-1.284-.453-1.661-.302-.378-.755-.604-1.359-.604s-1.057.15-1.284.453c-.302.302-.377.755-.377 1.283 0 .529.15.906.453 1.208.302.303.83.605 1.661.982 1.435.453 2.568 1.057 3.247 1.737.755.68 1.057 1.586 1.057 2.794 0 1.132-.377 2.038-1.057 2.718-.68.68-1.661 1.057-2.945 1.208V24.5h-1.51v-1.888c-1.284-.075-2.265-.528-3.096-1.283-.83-.756-1.208-1.813-1.133-3.172v.076z"/></g></svg><svg viewBox="0 0 26 26" id="wallet" xmlns="http://www.w3.org/2000/svg"><g fill="none" fill-rule="evenodd"><path d="M0 0h26v26H0z"/><path fill="#FFF" d="M24.48 12.42H20.8c-2.007 0-3.64 1.645-3.64 3.666 0 2.022 1.633 3.666 3.64 3.666h3.68v1.57c0 1.471-1.187 2.666-2.64 2.666H4.16c-1.453 0-2.64-1.195-2.64-2.665V10.85c0-1.47 1.187-2.666 2.64-2.666h17.68c1.453 0 2.64 1.195 2.64 2.666v1.57z"/><path fill="#FFF" d="M20.8 13.468h3.68v5.236H20.8a2.612 2.612 0 0 1-2.6-2.618 2.612 2.612 0 0 1 2.6-2.618zm0 4.19c.86 0 1.56-.706 1.56-1.572 0-.866-.7-1.57-1.56-1.57-.86 0-1.56.704-1.56 1.57 0 .866.7 1.571 1.56 1.571z"/><path fill="#FFF" fill-rule="nonzero" d="M20.8 16.957c.472 0 .86-.39.86-.87 0-.481-.388-.872-.86-.872s-.86.39-.86.871c0 .48.388.871.86.871zm3.252-9.017c-.54-1.334-1.815-2.446-3.403-2.765l.992 2.01c.608-.03 1.535.07 2.41.755zM4.03 7.184L7.891 5.09H6.554C4.431 5.013 2.77 6.11 1.942 7.942c.755-.553 1.12-.622 2.088-.758zm7.367-.001l7.14-3.893c-.44-.628-.86-.916-1.498-1.116-.898-.282-1.67 0-2.359.434L6.237 7.183h5.16zm9.078.003l-1.456-2.944-5.441 2.944z"/></g></svg><svg viewBox="0 0 30 30" id="waves-30" xmlns="http://www.w3.org/2000/svg"><g fill="none" fill-rule="evenodd"><path d="M0 0h30v30H0z"/><path fill="#05F" fill-rule="nonzero" d="M29.98 14.99L14.99 29.982 0 14.991 14.99 0z"/></g></svg></svg>